<svg width="24" height="24" viewBox="0 0 24 24" fill="none" xmlns="http://www.w3.org/2000/svg" data-karrot-ui-icon="true">
  <path d="M7.0002 13.2C6.55837 13.2 6.2002 13.5581 6.2002 14C6.2002 14.4418 6.55837 14.8 7.0002 14.8H17.0002C17.442 14.8 17.8002 14.4418 17.8002 14C17.8002 13.5581 17.442 13.2 17.0002 13.2H7.0002Z" fill="currentColor"/>
  <path d="M7.0002 16.2C6.55837 16.2 6.2002 16.5581 6.2002 17C6.2002 17.4418 6.55837 17.8 7.0002 17.8H12.0002C12.442 17.8 12.8002 17.4418 12.8002 17C12.8002 16.5581 12.442 16.2 12.0002 16.2H7.0002Z" fill="currentColor"/>
  <path fill-rule="evenodd" clip-rule="evenodd" d="M7.0002 6.19995C6.55837 6.19995 6.2002 6.55812 6.2002 6.99995V11C6.2002 11.4418 6.55837 11.8 7.0002 11.8H17.0002C17.442 11.8 17.8002 11.4418 17.8002 11V6.99995C17.8002 6.55812 17.442 6.19995 17.0002 6.19995H7.0002ZM7.8002 10.2V7.79995H16.2002V10.2H7.8002Z" fill="currentColor"/>
  <path fill-rule="evenodd" clip-rule="evenodd" d="M2.2002 2.99995C2.2002 2.55812 2.55837 2.19995 3.0002 2.19995H21.0002C21.442 2.19995 21.8002 2.55812 21.8002 2.99995V21C21.8002 21.4418 21.442 21.7999 21.0002 21.7999H3.0002C2.55837 21.7999 2.2002 21.4418 2.2002 21V2.99995ZM3.8002 3.79995V20.2H20.2002V3.79995H3.8002Z" fill="currentColor"/>
</svg>
