<svg width="24" height="24" viewBox="0 0 24 24" fill="none" xmlns="http://www.w3.org/2000/svg" data-karrot-ui-icon="true">
  <path d="M16.1577 11.4554C16.4092 11.0921 16.3186 10.5938 15.9553 10.3423C15.5921 10.0908 15.0937 10.1814 14.8422 10.5447L10.9325 16.192L8.60737 13.4794C8.31983 13.1439 7.81479 13.1051 7.47933 13.3926C7.14387 13.6802 7.10502 14.1852 7.39256 14.5207L10.3926 18.0207C10.5539 18.2089 10.7935 18.3117 11.0412 18.299C11.2888 18.2862 11.5166 18.1593 11.6577 17.9554L16.1577 11.4554Z" fill="currentColor"/>
  <path fill-rule="evenodd" clip-rule="evenodd" d="M7.99995 1.8667C8.44178 1.8667 8.79995 2.22487 8.79995 2.6667V3.20007H15.2V2.6667C15.2 2.22487 15.5581 1.8667 16 1.8667C16.4418 1.8667 16.8 2.22487 16.8 2.6667V3.20007H21C21.4418 3.20007 21.7999 3.55825 21.7999 4.00007V7.9983L21.8 8.00007L21.7999 8.00183V19.3334C21.7999 20.8798 20.5463 22.1334 19 22.1334H4.99995C3.45355 22.1334 2.19995 20.8798 2.19995 19.3334V4.00007C2.19995 3.55825 2.55812 3.20007 2.99995 3.20007H7.19995V2.6667C7.19995 2.22487 7.55812 1.8667 7.99995 1.8667ZM7.19995 5.33337V4.80007H3.79995V7.20007L20.2 7.20007V4.80007H16.8V5.33337C16.8 5.77519 16.4418 6.13337 16 6.13337C15.5581 6.13337 15.2 5.77519 15.2 5.33337V4.80007H8.79995V5.33337C8.79995 5.77519 8.44178 6.13337 7.99995 6.13337C7.55812 6.13337 7.19995 5.77519 7.19995 5.33337ZM3.79995 19.3334V8.80007L20.2 8.80007V19.3334C20.2 19.9961 19.6627 20.5334 19 20.5334H4.99995C4.33721 20.5334 3.79995 19.9961 3.79995 19.3334Z" fill="currentColor"/>
</svg>
