<svg width="24" height="24" viewBox="0 0 24 24" fill="none" xmlns="http://www.w3.org/2000/svg" data-karrot-ui-icon="true">
  <path fill-rule="evenodd" clip-rule="evenodd" d="M12.0001 3.36244L3.2245 11.1629V20.7756H8.53065V16.0817C8.53065 14.1216 10.0399 12.6123 12.0001 12.6123C13.9602 12.6123 15.4695 14.1216 15.4695 16.0817V20.7756H20.7756V11.1629L12.0001 3.36244ZM12.5424 2.2062C12.2331 1.93127 11.767 1.93127 11.4577 2.2062L2.27399 10.3695C2.09971 10.5244 2 10.7465 2 10.9796V21.1838C2 21.6346 2.36548 22.0001 2.81633 22.0001H8.93881C9.38966 22.0001 9.75514 21.6346 9.75514 21.1837V16.0817C9.75514 14.7978 10.7162 13.8368 12.0001 13.8368C13.2839 13.8368 14.245 14.7978 14.245 16.0817V21.1838C14.245 21.6346 14.6104 22.0001 15.0613 22.0001H21.1838C21.6346 22.0001 22.0001 21.6346 22.0001 21.1838V10.9796C22.0001 10.7465 21.9004 10.5244 21.7261 10.3695L12.5424 2.2062Z" fill="currentColor"/>
</svg>
