<svg width="24" height="24" viewBox="0 0 24 24" fill="none" xmlns="http://www.w3.org/2000/svg" data-karrot-ui-icon="true">
  <path d="M13.658 14.3206C13.4847 14.2339 13.2866 14.2958 13.1628 14.4691C13.1406 14.5002 13.11 14.5488 13.0726 14.6083C12.901 14.8811 12.5841 15.385 12.259 15.4968C12.0237 15.571 11.7885 15.3977 11.9742 14.4072C12.1599 13.4168 12.878 9.57866 12.9028 9.43009C12.9275 9.28152 12.8656 9.20723 12.8285 9.17009C12.779 9.12056 12.6923 9.07104 12.5437 9.10818C12.519 9.12056 11.9868 9.28145 11.4545 9.44237L10.439 9.76437C10.2161 9.82628 10.1047 10.012 10.1542 10.2101C10.179 10.3091 10.2409 10.4082 10.3275 10.4577C10.4142 10.5196 10.5132 10.532 10.6123 10.5072C10.6618 10.4948 10.7609 10.4701 10.8723 10.4329C10.9094 10.4206 10.9466 10.4113 10.9837 10.402C11.0209 10.3927 11.058 10.3834 11.0951 10.371C10.9466 11.151 10.3523 14.1101 10.3523 14.1101C10.2285 14.8158 10.1913 15.2987 10.2656 15.6082C10.3523 15.9672 10.5628 16.2272 10.8971 16.3882C11.0828 16.4625 11.2809 16.512 11.4913 16.5244C11.6523 16.5244 11.8132 16.512 11.999 16.4748C12.6923 16.3387 13.1628 15.831 13.3856 15.5339C13.5961 15.2615 13.7323 14.9891 13.819 14.8034C13.9056 14.6177 13.8437 14.4196 13.658 14.3206Z" fill="currentColor"/>
  <path d="M12 7.98095C12.547 7.98095 12.9905 7.5375 12.9905 6.99048C12.9905 6.44345 12.547 6 12 6C11.453 6 11.0095 6.44345 11.0095 6.99048C11.0095 7.5375 11.453 7.98095 12 7.98095Z" fill="currentColor"/>
  <path fill-rule="evenodd" clip-rule="evenodd" d="M12.9385 22.4819C13.1642 22.3184 13.4704 22.0896 13.8315 21.802C14.6066 21.1846 15.6421 20.2902 16.6807 19.1828C18.7248 17.0035 20.9333 13.8375 20.9333 10.2355C20.9333 5.19632 16.9579 1.06689 12 1.06689C7.04209 1.06689 3.06665 5.19632 3.06665 10.2355C3.06665 13.8375 5.27519 17.0035 7.31923 19.1828C8.35784 20.2902 9.39342 21.1846 10.1685 21.8019C10.5296 22.0896 10.8358 22.3184 11.0615 22.4819C11.6214 22.8874 12.3785 22.8874 12.9385 22.4819ZM11.1654 20.5505C10.4333 19.9673 9.45866 19.125 8.48624 18.0883C6.51764 15.9894 4.66665 13.2088 4.66665 10.2355C4.66665 6.03714 7.96798 2.66689 12 2.66689C16.032 2.66689 19.3333 6.03714 19.3333 10.2355C19.3333 13.2088 17.4823 15.9894 15.5137 18.0883C14.5413 19.125 13.5667 19.9673 12.8346 20.5505C12.4946 20.8213 12.2081 21.0353 12 21.186C11.7918 21.0353 11.5053 20.8213 11.1654 20.5505Z" fill="currentColor"/>
</svg>
