<svg width="24" height="24" viewBox="0 0 24 24" fill="none" xmlns="http://www.w3.org/2000/svg" data-karrot-ui-icon="true">
  <path d="M11.5911 2.51242C11.8498 2.38909 12.1503 2.38909 12.4089 2.51242C12.6463 2.62561 12.7685 2.81787 12.8151 2.89399C12.8644 2.97458 12.9129 3.07291 12.9512 3.15065L12.9512 3.1507L12.9595 3.16752L15.437 8.18742L20.9768 8.9924L20.9953 8.99509C21.0811 9.0075 21.1896 9.02321 21.2816 9.04523C21.3683 9.06602 21.589 9.12283 21.77 9.31364C21.9672 9.52151 22.06 9.80729 22.0227 10.0914C21.9884 10.3521 21.8433 10.5278 21.7853 10.5956C21.7239 10.6675 21.6453 10.744 21.5832 10.8044L17.5612 14.7249L18.5075 20.2423L18.5106 20.2608C18.5253 20.3463 18.5439 20.4543 18.5514 20.5485C18.5584 20.6375 18.5726 20.8649 18.4471 21.096C18.3103 21.3478 18.0672 21.5244 17.7855 21.5767C17.5269 21.6246 17.315 21.5409 17.2326 21.5067C17.1453 21.4705 17.0483 21.4194 16.9716 21.3791L16.955 21.3703L12 18.7653L7.04508 21.3703L7.02845 21.3791C6.95176 21.4194 6.85475 21.4705 6.76746 21.5067C6.68502 21.5409 6.47315 21.6246 6.21455 21.5767C5.93281 21.5244 5.68972 21.3478 5.55297 21.096C5.42745 20.8649 5.44159 20.6375 5.44863 20.5485C5.45609 20.4543 5.47469 20.3462 5.48939 20.2608L5.49257 20.2423L6.43888 14.7249L2.43025 10.8175L2.41681 10.8044C2.35471 10.7439 2.27615 10.6674 2.21473 10.5956C2.15674 10.5278 2.01165 10.3521 1.97736 10.0914C1.93999 9.80728 2.03285 9.52151 2.23006 9.31364C2.41108 9.12284 2.63169 9.06602 2.71848 9.04523C2.81039 9.02321 2.9189 9.00751 3.00469 8.99509L3.00471 8.99509L3.02326 8.9924L8.56304 8.18742L11.0405 3.16752L11.0488 3.1507C11.0871 3.07295 11.1356 2.9746 11.1849 2.89399C11.2315 2.81787 11.3537 2.62561 11.5911 2.51242Z" fill="currentColor"/>
</svg>
