<svg width="24" height="24" viewBox="0 0 24 24" fill="none" xmlns="http://www.w3.org/2000/svg" data-karrot-ui-icon="true">
  <path fill-rule="evenodd" clip-rule="evenodd" d="M12.1872 4.29023C10.9731 4.83553 9.5633 5.85106 8.20708 7.20728C5.9936 9.42075 4.7878 12.8147 4.47616 14.2171C4.35635 14.7562 3.82217 15.0962 3.28304 14.9764C2.74391 14.8566 2.40398 14.3224 2.52378 13.7832C2.8788 12.1856 4.20634 8.37959 6.79286 5.79307C8.2662 4.31973 9.87123 3.13795 11.3678 2.46579C12.7996 1.82275 14.4439 1.51641 15.7026 2.36681C16.0548 2.60476 16.299 2.916 16.4684 3.18999C17.24 4.43802 17.1716 5.63359 16.8016 6.6316C16.5213 7.38779 16.0399 8.08207 15.703 8.56804C15.6331 8.66881 15.5695 8.76062 15.5151 8.84217C15.213 9.29529 14.6961 9.8735 14.1411 10.4719C13.9016 10.7301 13.6537 10.9934 13.3983 11.2646C13.0265 11.6594 12.639 12.071 12.2388 12.508C11.5753 13.2324 10.9275 13.9729 10.3874 14.6818C9.83959 15.4008 9.44217 16.0368 9.23876 16.5538C9.15768 16.7598 9.14466 16.8959 9.1479 16.9733C9.14982 17.019 9.18244 17.0558 9.22769 17.0627C9.55574 17.1131 10.5352 16.9075 11.971 15.4718C12.3466 15.0962 12.7112 14.7258 13.0629 14.3685C14.0744 13.3411 14.9801 12.4212 15.7384 11.7918C16.2455 11.3709 16.7937 10.9854 17.3524 10.8083C17.6463 10.7152 17.9856 10.6657 18.3425 10.7325C18.7114 10.8015 19.0285 10.9818 19.2831 11.2365C19.8583 11.8116 19.9012 12.5554 19.7785 13.1595C19.6594 13.7453 19.3624 14.3523 19.0212 14.9227C18.3624 16.024 17.3511 17.2877 16.403 18.4722C16.3621 18.5233 16.3214 18.5742 16.2808 18.6249C16.2134 18.7092 16.1508 18.7903 16.0927 18.8682C15.7641 19.309 16.118 19.7759 16.6286 19.5717C18.5466 18.8045 19.5838 18.0022 19.7929 17.7931C20.1834 17.4025 20.8166 17.4025 21.2071 17.7931C21.5976 18.1836 21.5976 18.8168 21.2071 19.2073C20.7495 19.6648 19.4534 20.5958 17.3714 21.4286C16.686 21.7028 16.0289 21.8719 15.4485 21.8828C14.8916 21.8933 14.1842 21.7536 13.7487 21.1439C13.3161 20.5383 13.4015 19.8163 13.5938 19.2596C13.7945 18.6788 14.1832 18.0454 14.7191 17.3755L14.7897 17.2872C15.7813 16.0479 16.7178 14.8774 17.3048 13.8961C17.3518 13.8175 17.3953 13.7421 17.4355 13.6699C17.6282 13.3234 17.3208 13.0775 17.0157 13.3307C16.341 13.8907 15.5431 14.701 14.5633 15.6961C14.1971 16.068 13.8054 16.4658 13.3852 16.886C11.821 18.4502 10.2258 19.2395 8.92398 19.0395C8.21684 18.9309 7.61025 18.5179 7.31997 17.8351C7.04697 17.1929 7.12111 16.4734 7.37766 15.8214C7.68184 15.0484 8.21008 14.2394 8.79649 13.4697C9.39064 12.6899 10.0855 11.8978 10.7639 11.1572C11.1654 10.7187 11.5798 10.2786 11.9643 9.86999C12.2181 9.6003 12.459 9.34439 12.6747 9.11186C13.2501 8.49147 13.6531 8.02965 13.851 7.73277C13.9399 7.59947 14.0281 7.47115 14.1142 7.34593C14.4439 6.86647 14.7425 6.43227 14.9263 5.93646C15.1266 5.39617 15.1527 4.8652 14.7672 4.24176C14.6878 4.11323 14.6229 4.05102 14.5829 4.02402C14.2285 3.78456 13.4662 3.71582 12.1872 4.29023ZM17.8326 12.5886C17.8342 12.5871 17.8311 12.59 17.8326 12.5886V12.5886ZM15.2442 19.8695C15.2451 19.8688 15.2434 19.8702 15.2442 19.8695V19.8695ZM15.4361 20.1236C15.4353 20.124 15.4369 20.1231 15.4361 20.1236V20.1236Z" fill="currentColor"/>
</svg>
