<svg width="24" height="24" viewBox="0 0 24 24" fill="none" xmlns="http://www.w3.org/2000/svg" data-karrot-ui-icon="true">
  <path fill-rule="evenodd" clip-rule="evenodd" d="M2.94155 4.94588C5.17737 2.61797 8.84154 2.61797 11.0773 4.94588L11.9873 5.89616L12.8965 4.94654C15.1324 2.61863 18.7972 2.61797 21.033 4.94588L21.0344 4.94735C23.2932 7.3152 22.931 10.8865 21.0773 13.3171L21.0764 13.3183C19.1809 15.7907 16.989 17.7861 15.2768 19.1609C14.4194 19.8494 13.6791 20.3847 13.1517 20.7488C12.8879 20.931 12.6772 21.0704 12.5315 21.1649C12.4586 21.2122 12.4019 21.2482 12.363 21.2727L12.318 21.3008L12.3059 21.3084L12.3014 21.3111C12.3014 21.3111 12.3008 21.3115 11.9873 20.8C11.6828 21.317 11.6825 21.3168 11.6825 21.3168L11.6811 21.3159L11.6775 21.3138L11.6648 21.3062L11.618 21.278C11.5774 21.2535 11.5186 21.2174 11.443 21.1701C11.2918 21.0754 11.0736 20.9358 10.8016 20.7535C10.2577 20.389 9.49743 19.853 8.62614 19.1636C6.88696 17.7876 4.68879 15.7872 2.88861 13.3056L2.88786 13.3045C1.1269 10.8659 0.6723 7.30861 2.94155 4.94588ZM11.9873 20.8L11.6825 21.3168C11.8737 21.4294 12.1123 21.4271 12.3014 21.3111L11.9873 20.8ZM11.9814 20.0909C12.1091 20.0069 12.2738 19.8967 12.4699 19.7613C12.9772 19.4111 13.6938 18.893 14.5254 18.2252C16.191 16.8879 18.3053 14.9603 20.1234 12.5891C21.7258 10.4877 21.9065 7.60111 20.1669 5.77655C18.4034 3.941 15.5264 3.94109 13.7629 5.77681L12.4206 7.17867C12.3074 7.29687 12.1509 7.36371 11.9873 7.36371C11.8236 7.36371 11.6671 7.29687 11.5539 7.17867L10.2119 5.77712C8.44827 3.94113 5.57053 3.94097 3.80703 5.77712C2.07704 7.57837 2.30787 10.4511 3.86033 12.6015C5.57384 14.9635 7.68197 16.8864 9.37072 18.2226C10.2135 18.8894 10.9476 19.4068 11.4696 19.7567C11.6755 19.8946 11.8482 20.0064 11.9814 20.0909Z" fill="currentColor"/>
</svg>
