<svg width="24" height="24" viewBox="0 0 24 24" fill="none" xmlns="http://www.w3.org/2000/svg" data-karrot-ui-icon="true">
  <path d="M6.07497 7.33989C6.62645 7.33989 7.07351 6.89282 7.07351 6.34134C7.07351 5.78986 6.62645 5.3428 6.07497 5.3428C5.52348 5.3428 5.07642 5.78986 5.07642 6.34134C5.07642 6.89282 5.52348 7.33989 6.07497 7.33989Z" fill="currentColor"/>
  <path d="M11.0677 6.34134C11.0677 6.89282 10.6206 7.33989 10.0692 7.33989C9.51767 7.33989 9.0706 6.89282 9.0706 6.34134C9.0706 5.78986 9.51767 5.3428 10.0692 5.3428C10.6206 5.3428 11.0677 5.78986 11.0677 6.34134Z" fill="currentColor"/>
  <path d="M14.0633 7.33989C14.6148 7.33989 15.0619 6.89282 15.0619 6.34134C15.0619 5.78986 14.6148 5.3428 14.0633 5.3428C13.5119 5.3428 13.0648 5.78986 13.0648 6.34134C13.0648 6.89282 13.5119 7.33989 14.0633 7.33989Z" fill="currentColor"/>
  <path d="M19.0561 6.34134C19.0561 6.89282 18.609 7.33989 18.0575 7.33989C17.506 7.33989 17.059 6.89282 17.059 6.34134C17.059 5.78986 17.506 5.3428 18.0575 5.3428C18.609 5.3428 19.0561 5.78986 19.0561 6.34134Z" fill="currentColor"/>
  <path d="M9.33701 9.86957C8.89583 9.86957 8.53818 10.2272 8.53818 10.6684C8.53818 11.1096 8.89583 11.4672 9.33701 11.4672H14.6626C15.1038 11.4672 15.4614 11.1096 15.4614 10.6684C15.4614 10.2272 15.1038 9.86957 14.6626 9.86957H9.33701Z" fill="currentColor"/>
  <path fill-rule="evenodd" clip-rule="evenodd" d="M0.549805 4.01143C0.549805 2.09963 2.09963 0.549805 4.01143 0.549805H19.9882C21.9 0.549805 23.4498 2.09963 23.4498 4.01143V11.9998C23.4498 13.9116 21.9 15.4614 19.9882 15.4614H4.01143C2.09963 15.4614 0.549805 13.9116 0.549805 11.9998V4.01143ZM4.01143 2.14748C2.982 2.14748 2.14748 2.982 2.14748 4.01143V11.9998C2.14748 13.0292 2.982 13.8638 4.01143 13.8638H19.9882C21.0176 13.8638 21.8521 13.0292 21.8521 11.9998V4.01143C21.8521 2.982 21.0176 2.14748 19.9882 2.14748H4.01143Z" fill="currentColor"/>
  <path d="M7.44075 18.0919C7.75272 17.78 8.25852 17.78 8.57048 18.0919L11.9998 21.5212L15.4291 18.0919C15.7411 17.78 16.2469 17.78 16.5589 18.0919C16.8708 18.4039 16.8708 18.9097 16.5589 19.2216L12.5647 23.2158C12.2527 23.5278 11.7469 23.5278 11.4349 23.2158L7.44075 19.2216C7.12879 18.9097 7.12879 18.4039 7.44075 18.0919Z" fill="currentColor"/>
</svg>
