<svg width="24" height="24" viewBox="0 0 24 24" fill="none" xmlns="http://www.w3.org/2000/svg" data-karrot-ui-icon="true">
  <path fill-rule="evenodd" clip-rule="evenodd" d="M12.0002 2.2002C6.5878 2.2002 2.2002 6.5878 2.2002 12.0002C2.2002 17.4126 6.5878 21.8002 12.0002 21.8002H21.0002C21.442 21.8002 21.8002 21.442 21.8002 21.0002V12.0002C21.8002 6.5878 17.4126 2.2002 12.0002 2.2002ZM9.0002 9.2002C8.55837 9.2002 8.2002 9.55837 8.2002 10.0002C8.2002 10.442 8.55837 10.8002 9.0002 10.8002H15.0002C15.442 10.8002 15.8002 10.442 15.8002 10.0002C15.8002 9.55837 15.442 9.2002 15.0002 9.2002H9.0002ZM8.2002 14.0002C8.2002 13.5584 8.55837 13.2002 9.0002 13.2002H13.0002C13.442 13.2002 13.8002 13.5584 13.8002 14.0002C13.8002 14.442 13.442 14.8002 13.0002 14.8002H9.0002C8.55837 14.8002 8.2002 14.442 8.2002 14.0002Z" fill="currentColor"/>
</svg>
