<svg width="24" height="24" viewBox="0 0 24 24" fill="none" xmlns="http://www.w3.org/2000/svg" data-karrot-ui-icon="true">
  <path fill-rule="evenodd" clip-rule="evenodd" d="M11.5 3.79995C16.3835 3.79995 20.2 7.35812 20.2 11.5806C20.2 14.0038 18.958 16.1907 16.9684 17.6313C16.7606 17.7817 16.6375 18.0227 16.6375 18.2793V20.5712C16.5255 20.503 16.4099 20.4329 16.2928 20.3622C15.5008 19.8835 14.5576 19.3227 14.2065 19.1628C14.046 19.0897 13.8657 19.0717 13.6939 19.1117C12.994 19.2744 12.259 19.3612 11.5 19.3612C6.61662 19.3612 2.80005 15.8031 2.80005 11.5806C2.80005 7.35812 6.61662 3.79995 11.5 3.79995ZM17.0163 22.6801C17.2631 22.8329 17.5732 22.8401 17.8268 22.6989C18.0804 22.5577 18.2375 22.2902 18.2375 22V18.6773C20.404 16.9699 21.8 14.4342 21.8 11.5806C21.8 6.32515 17.11 2.19995 11.5 2.19995C5.89007 2.19995 1.20005 6.32515 1.20005 11.5806C1.20005 16.836 5.89007 20.9612 11.5 20.9612C12.2775 20.9612 13.0358 20.8827 13.7655 20.7336C14.1333 20.9345 14.7983 21.3284 15.4651 21.7315C15.8712 21.9769 16.2592 22.2142 16.5458 22.3902C16.689 22.4781 16.8068 22.5507 16.8887 22.6012L17.0163 22.6801Z" fill="currentColor"/>
</svg>
