<svg width="24" height="24" viewBox="0 0 24 24" fill="none" xmlns="http://www.w3.org/2000/svg" data-karrot-ui-icon="true">
  <path fill-rule="evenodd" clip-rule="evenodd" d="M17 2.2H7C4.34903 2.2 2.2 4.34903 2.2 7V17C2.2 19.651 4.34903 21.8 7 21.8H17C19.651 21.8 21.8 19.651 21.8 17V7C21.8 4.34903 19.651 2.2 17 2.2ZM7 1C3.68629 1 1 3.68629 1 7V17C1 20.3137 3.68629 23 7 23H17C20.3137 23 23 20.3137 23 17V7C23 3.68629 20.3137 1 17 1H7ZM5.5 11.9C5.5 11.5687 5.76863 11.3 6.1 11.3H11.3V6.1C11.3 5.76863 11.5686 5.5 11.9 5.5C12.2314 5.5 12.5 5.76863 12.5 6.1V11.3H17.9C18.2314 11.3 18.5 11.5687 18.5 11.9C18.5 12.2314 18.2314 12.5 17.9 12.5H12.5V17.9C12.5 18.2314 12.2314 18.5 11.9 18.5C11.5686 18.5 11.3 18.2314 11.3 17.9V12.5H6.1C5.76863 12.5 5.5 12.2314 5.5 11.9Z" fill="currentColor"/>
</svg>
