<svg width="24" height="24" viewBox="0 0 24 24" fill="none" xmlns="http://www.w3.org/2000/svg" data-karrot-ui-icon="true">
  <path d="M17.9735 7.06825C18.177 6.80668 18.1298 6.42971 17.8683 6.22627C17.6067 6.02283 17.2297 6.06995 17.0263 6.33152L10.4691 14.7621L6.94835 10.8013C6.7282 10.5536 6.34896 10.5313 6.10129 10.7514C5.85362 10.9716 5.83131 11.3508 6.05146 11.5985L10.0515 16.0985C10.1699 16.2317 10.3414 16.3054 10.5196 16.2996C10.6977 16.2937 10.8641 16.209 10.9735 16.0682L17.9735 7.06825Z" fill="currentColor"/>
  <path d="M4.9999 17.7C4.66853 17.7 4.3999 17.9686 4.3999 18.3C4.3999 18.6313 4.66853 18.9 4.9999 18.9H18.9999C19.3313 18.9 19.5999 18.6313 19.5999 18.3C19.5999 17.9686 19.3313 17.7 18.9999 17.7H4.9999Z" fill="currentColor"/>
</svg>
