<svg width="24" height="24" viewBox="0 0 24 24" fill="none" xmlns="http://www.w3.org/2000/svg" data-karrot-ui-icon="true">
  <path fill-rule="evenodd" clip-rule="evenodd" d="M9 2.66654C8.72211 2.66654 8.47336 2.83893 8.37578 3.09913L7.538 5.33321H4.66667H2.66667C2.29848 5.33321 2 5.63169 2 5.99988C2 6.36807 2.29848 6.66654 2.66667 6.66654H4V19.9999C4 21.1044 4.89543 21.9999 6 21.9999H18C19.1046 21.9999 20 21.1044 20 19.9999V6.66654H21.3333C21.7015 6.66654 22 6.36807 22 5.99988C22 5.63169 21.7015 5.33321 21.3333 5.33321H19.3333H16.462L15.6242 3.09913C15.5266 2.83893 15.2779 2.66654 15 2.66654H9ZM8.66667 10.6665C9.03486 10.6665 9.33333 10.965 9.33333 11.3332V15.9998C9.33333 16.368 9.03486 16.6665 8.66667 16.6665C8.29848 16.6665 8 16.368 8 15.9998V11.3332C8 10.965 8.29848 10.6665 8.66667 10.6665ZM12 10.6665C12.3682 10.6665 12.6667 10.965 12.6667 11.3332V15.9998C12.6667 16.368 12.3682 16.6665 12 16.6665C11.6318 16.6665 11.3333 16.368 11.3333 15.9998V11.3332C11.3333 10.965 11.6318 10.6665 12 10.6665ZM15.3333 10.6665C15.7015 10.6665 16 10.965 16 11.3332V15.9998C16 16.368 15.7015 16.6665 15.3333 16.6665C14.9651 16.6665 14.6667 16.368 14.6667 15.9998V11.3332C14.6667 10.965 14.9651 10.6665 15.3333 10.6665Z" fill="currentColor"/>
</svg>
