<svg width="24" height="24" viewBox="0 0 24 24" fill="none" xmlns="http://www.w3.org/2000/svg" data-karrot-ui-icon="true">
  <path d="M13.7852 15.6268C13.5985 15.5335 13.3853 15.6001 13.2519 15.7868C13.2281 15.8202 13.1952 15.8725 13.1548 15.9367C12.9701 16.2304 12.6289 16.773 12.2788 16.8934C12.0255 16.9734 11.7722 16.7867 11.9722 15.7201C12.1721 14.6535 12.9453 10.5205 12.972 10.3605C12.9987 10.2006 12.932 10.1206 12.892 10.0806C12.8387 10.0272 12.7454 9.97391 12.5854 10.0139C12.5587 10.0272 11.9855 10.2006 11.4123 10.3739L10.3191 10.7205C10.0792 10.7872 9.95918 10.9872 10.0125 11.2005C10.0392 11.3071 10.1058 11.4138 10.1991 11.4671C10.2925 11.5338 10.3991 11.5471 10.5058 11.5205C10.5591 11.5071 10.6657 11.4805 10.7857 11.4405C10.8257 11.4271 10.8657 11.4171 10.9057 11.4071C10.9457 11.3971 10.9857 11.3871 11.0257 11.3738C10.8657 12.2137 10.2258 15.4001 10.2258 15.4001C10.0925 16.1601 10.0525 16.68 10.1325 17.0134C10.2258 17.4 10.4524 17.68 10.8124 17.8533C11.0123 17.9333 11.2256 17.9866 11.4523 17.9999C11.6256 17.9999 11.7989 17.9866 11.9988 17.9466C12.7454 17.8 13.2519 17.2533 13.4919 16.9334C13.7185 16.64 13.8652 16.3467 13.9585 16.1468C14.0518 15.9468 13.9851 15.7335 13.7852 15.6268Z" fill="currentColor"/>
  <path d="M12.0498 8.99994C12.7402 8.99994 13.2998 8.44029 13.2998 7.74994C13.2998 7.05958 12.7402 6.49994 12.0498 6.49994C11.3594 6.49994 10.7998 7.05958 10.7998 7.74994C10.7998 8.44029 11.3594 8.99994 12.0498 8.99994Z" fill="currentColor"/>
  <path fill-rule="evenodd" clip-rule="evenodd" d="M2.2002 12C2.2002 6.58756 6.5878 2.19995 12.0002 2.19995C17.4126 2.19995 21.8002 6.58756 21.8002 12C21.8002 17.4123 17.4126 21.7999 12.0002 21.7999C6.5878 21.7999 2.2002 17.4123 2.2002 12ZM12.0002 3.79995C7.47146 3.79995 3.8002 7.47122 3.8002 12C3.8002 16.5287 7.47146 20.2 12.0002 20.2C16.5289 20.2 20.2002 16.5287 20.2002 12C20.2002 7.47122 16.5289 3.79995 12.0002 3.79995Z" fill="currentColor"/>
</svg>
