<svg width="24" height="24" viewBox="0 0 24 24" fill="none" xmlns="http://www.w3.org/2000/svg" data-karrot-ui-icon="true">
  <path fill-rule="evenodd" clip-rule="evenodd" d="M12 21.8C17.4124 21.8 21.8 17.4124 21.8 12C21.8 6.58761 17.4124 2.2 12 2.2C6.58761 2.2 2.2 6.58761 2.2 12C2.2 17.4124 6.58761 21.8 12 21.8ZM12 23C18.0751 23 23 18.0751 23 12C23 5.92487 18.0751 1 12 1C5.92487 1 1 5.92487 1 12C1 18.0751 5.92487 23 12 23Z" fill="currentColor"/>
  <path fill-rule="evenodd" clip-rule="evenodd" d="M12 5.9C12.3314 5.9 12.6 6.16863 12.6 6.5V12.1438L17.7873 14.9733C18.0782 15.1319 18.1854 15.4964 18.0267 15.7873C17.8681 16.0782 17.5036 16.1854 17.2127 16.0267L11.4 12.8562V6.5C11.4 6.16863 11.6686 5.9 12 5.9Z" fill="currentColor"/>
</svg>
