<svg width="24" height="24" viewBox="0 0 24 24" fill="none" xmlns="http://www.w3.org/2000/svg" data-karrot-ui-icon="true">
  <path fill-rule="evenodd" clip-rule="evenodd" d="M11.9999 5.2002C8.45192 5.2002 6.08449 6.89147 4.60785 8.57906C3.8702 9.42209 3.35416 10.2647 3.02243 10.8966C2.85649 11.2126 2.73647 11.4764 2.65775 11.6616C2.56623 11.878 2.56623 12.1223 2.65775 12.3388C2.73647 12.524 2.8565 12.7878 3.02243 13.1038C3.35416 13.7357 3.8702 14.5783 4.60785 15.4213C6.08449 17.1089 8.45192 18.8002 11.9999 18.8002C15.5478 18.8002 17.9152 17.1089 19.3919 15.4213C20.1295 14.5783 20.6456 13.7357 20.9773 13.1038C21.1432 12.7878 21.2632 12.524 21.342 12.3388L21.3426 12.3374C21.4337 12.1218 21.4337 11.8786 21.3426 11.663L21.342 11.6616C21.2632 11.4764 21.1432 11.2126 20.9773 10.8966C20.6456 10.2647 20.1295 9.42209 19.3919 8.57906C17.9152 6.89147 15.5478 5.2002 11.9999 5.2002ZM13.8469 11.4534C14.5485 11.4534 15.1499 11.019 15.3504 10.3842C15.3838 10.2172 15.5842 10.2172 15.6177 10.3508C15.9518 11.0858 16.0854 11.9211 15.9184 12.8232C15.6177 14.4603 14.3146 15.7299 12.6775 15.9972C10.1717 16.3982 8 14.4603 8 12.0213C8 9.94988 9.60372 8.21252 11.6752 8.01205C12.1763 7.97864 12.6441 8.01205 13.0784 8.14569C13.2121 8.1791 13.2455 8.37957 13.1119 8.44639C12.6441 8.71368 12.31 9.21484 12.2766 9.78282C12.2432 10.6849 12.9782 11.4534 13.8469 11.4534Z" fill="currentColor"/>
</svg>
