<svg width="24" height="24" viewBox="0 0 24 24" fill="none" xmlns="http://www.w3.org/2000/svg" data-karrot-ui-icon="true">
  <path fill-rule="evenodd" clip-rule="evenodd" d="M11.5911 2.51242C11.8498 2.38909 12.1503 2.38909 12.4089 2.51242C12.6463 2.62561 12.7685 2.81787 12.8151 2.89399C12.8644 2.9746 12.9129 3.07295 12.9512 3.1507C12.9541 3.15642 12.9568 3.16204 12.9595 3.16752L15.437 8.18742L20.9768 8.9924C20.9828 8.99328 20.989 8.99417 20.9953 8.99509C21.0811 9.0075 21.1896 9.02321 21.2816 9.04523C21.3683 9.06602 21.589 9.12283 21.77 9.31364C21.9672 9.52151 22.06 9.80729 22.0227 10.0914C21.9884 10.3521 21.8433 10.5278 21.7853 10.5956C21.7239 10.6675 21.6453 10.744 21.5832 10.8044L17.5612 14.7249L18.5075 20.2423C18.5085 20.2484 18.5096 20.2545 18.5106 20.2608C18.5253 20.3463 18.5439 20.4543 18.5514 20.5485C18.5584 20.6375 18.5726 20.8649 18.4471 21.096C18.3103 21.3478 18.0672 21.5244 17.7855 21.5767C17.5269 21.6246 17.315 21.5409 17.2326 21.5067C17.1453 21.4705 17.0483 21.4194 16.9716 21.3791C16.9659 21.3761 16.9604 21.3732 16.955 21.3703L12 18.7653L7.04508 21.3703C7.03966 21.3732 7.03411 21.3761 7.02845 21.3791C6.95176 21.4194 6.85475 21.4705 6.76746 21.5067C6.68502 21.5409 6.47315 21.6246 6.21455 21.5767C5.93281 21.5244 5.68972 21.3478 5.55297 21.096C5.42745 20.8649 5.44159 20.6375 5.44863 20.5485C5.45609 20.4543 5.47469 20.3462 5.48939 20.2608C5.49047 20.2545 5.49153 20.2484 5.49257 20.2423L6.43888 14.7249L2.43025 10.8175C2.42587 10.8132 2.42139 10.8089 2.41681 10.8044C2.35471 10.7439 2.27615 10.6674 2.21473 10.5956C2.15674 10.5278 2.01165 10.3521 1.97736 10.0914C1.93999 9.80728 2.03285 9.52151 2.23006 9.31364C2.41108 9.12284 2.63169 9.06602 2.71848 9.04523C2.8104 9.02321 2.91892 9.0075 3.00471 8.99509C3.01102 8.99417 3.01721 8.99328 3.02326 8.9924L8.56304 8.18742L11.0405 3.16752C11.0432 3.16204 11.046 3.15642 11.0488 3.1507C11.0871 3.07295 11.1356 2.9746 11.1849 2.89399C11.2315 2.81787 11.3537 2.62561 11.5911 2.51242ZM12 4.61267L9.8081 9.05399C9.80758 9.05504 9.80674 9.05683 9.80559 9.0593C9.79123 9.08998 9.72795 9.22518 9.62411 9.3369C9.54037 9.42699 9.43993 9.49996 9.32837 9.55177C9.19003 9.616 9.0419 9.6344 9.00828 9.63858C9.00558 9.63891 9.00361 9.63916 9.00246 9.63932L4.10117 10.3515L7.64777 13.8086C7.64861 13.8094 7.65006 13.8108 7.65204 13.8126C7.67679 13.8358 7.78582 13.9377 7.85998 14.071C7.91979 14.1785 7.95815 14.2966 7.97295 14.4187C7.99129 14.5701 7.96301 14.7167 7.95659 14.7499C7.95608 14.7526 7.9557 14.7545 7.9555 14.7557L7.11826 19.6372L11.5021 17.3324C11.5031 17.3319 11.5049 17.3309 11.5073 17.3296C11.5369 17.3132 11.6676 17.2411 11.8172 17.2117C11.9379 17.1881 12.0621 17.1881 12.1828 17.2117C12.3325 17.2411 12.4631 17.3132 12.4928 17.3296C12.4952 17.3309 12.4969 17.3319 12.4979 17.3324L16.8818 19.6372L16.0445 14.7557C16.0443 14.7545 16.044 14.7526 16.0434 14.7499C16.037 14.7167 16.0087 14.5701 16.0271 14.4187C16.0419 14.2966 16.0802 14.1785 16.1401 14.071C16.2142 13.9377 16.3232 13.8358 16.348 13.8126C16.35 13.8108 16.3514 13.8094 16.3523 13.8086L19.8989 10.3515L14.9976 9.63932C14.9964 9.63916 14.9945 9.63891 14.9918 9.63858C14.9581 9.6344 14.81 9.616 14.6717 9.55177C14.5601 9.49996 14.4597 9.42699 14.3759 9.3369C14.2721 9.22518 14.2088 9.08998 14.1944 9.0593C14.1933 9.05683 14.1925 9.05504 14.1919 9.05399L12 4.61267Z" fill="currentColor"/>
</svg>
