<svg width="24" height="24" viewBox="0 0 24 24" fill="none" xmlns="http://www.w3.org/2000/svg" data-karrot-ui-icon="true">
  <path fill-rule="evenodd" clip-rule="evenodd" d="M5.5998 5.99995C5.5998 5.55812 5.95798 5.19995 6.3998 5.19995H14.3998C14.8416 5.19995 15.1998 5.55812 15.1998 5.99995V9.10005C15.1998 9.54188 14.8416 9.90005 14.3998 9.90005H6.3998C5.95798 9.90005 5.5998 9.54188 5.5998 9.10005V5.99995ZM7.1998 6.79995V8.30005H13.5998V6.79995H7.1998Z" fill="currentColor"/>
  <path d="M5.7998 12.1C5.7998 11.6582 6.15798 11.3 6.5998 11.3H14.3998C14.8416 11.3 15.1998 11.6582 15.1998 12.1C15.1998 12.5419 14.8416 12.9 14.3998 12.9H6.5998C6.15798 12.9 5.7998 12.5419 5.7998 12.1Z" fill="currentColor"/>
  <path d="M5.7998 15.1C5.7998 14.6582 6.15798 14.3 6.5998 14.3H11.5998C12.0416 14.3 12.3998 14.6582 12.3998 15.1C12.3998 15.5419 12.0416 15.9 11.5998 15.9H6.5998C6.15798 15.9 5.7998 15.5419 5.7998 15.1Z" fill="currentColor"/>
  <path fill-rule="evenodd" clip-rule="evenodd" d="M2.19971 3.99995C2.19971 3.00584 3.00559 2.19995 3.99971 2.19995H16.9997C17.9938 2.19995 18.7997 3.00584 18.7997 3.99995V18C18.7997 18.9941 17.9938 19.8 16.9997 19.8H3.99971C3.0056 19.8 2.19971 18.9941 2.19971 18V3.99995ZM3.99971 3.79995C3.88925 3.79995 3.79971 3.88949 3.79971 3.99995V18C3.79971 18.1104 3.88925 18.2 3.99971 18.2H16.9997C17.1102 18.2 17.1997 18.1104 17.1997 18V3.99995C17.1997 3.88949 17.1102 3.79995 16.9997 3.79995H3.99971Z" fill="currentColor"/>
  <path d="M20.8002 5.99995C20.8002 5.55812 20.442 5.19995 20.0002 5.19995C19.5584 5.19995 19.2002 5.55812 19.2002 5.99995V18C19.2002 19.215 18.2152 20.2 17.0002 20.2H6.5002C6.05837 20.2 5.7002 20.5581 5.7002 21C5.7002 21.4418 6.05837 21.8 6.5002 21.8H17.0002C19.0989 21.8 20.8002 20.0986 20.8002 18V5.99995Z" fill="currentColor"/>
</svg>
