<svg width="24" height="24" viewBox="0 0 24 24" fill="none" xmlns="http://www.w3.org/2000/svg" data-karrot-ui-icon="true">
  <path d="M11.9001 3.1001C9.26524 3.1001 6.94854 4.20273 5.30024 6.0708C5.00791 6.4021 5.03951 6.90765 5.37081 7.19997C5.70211 7.49229 6.20765 7.46069 6.49998 7.1294C7.85168 5.59747 9.73497 4.7001 11.9001 4.7001C15.8478 4.7001 19.0829 7.92479 19.1 11.8687L18.4658 11.2344C18.1534 10.922 17.6468 10.922 17.3344 11.2344C17.022 11.5469 17.022 12.0534 17.3344 12.3658L19.3344 14.3658C19.6468 14.6782 20.1534 14.6782 20.4658 14.3658L22.4658 12.3658C22.7782 12.0534 22.7782 11.5469 22.4658 11.2344C22.1534 10.922 21.6468 10.922 21.3344 11.2344L20.7001 11.8688C20.683 7.04122 16.7315 3.1001 11.9001 3.1001Z" fill="currentColor"/>
  <path d="M3.10015 11.9314L2.46578 12.5658C2.15336 12.8782 1.64683 12.8782 1.33441 12.5658C1.02199 12.2534 1.02199 11.7469 1.33441 11.4344L3.33441 9.43445C3.64683 9.12203 4.15336 9.12203 4.46578 9.43445L6.46578 11.4344C6.7782 11.7469 6.7782 12.2534 6.46578 12.5658C6.15336 12.8782 5.64683 12.8782 5.33441 12.5658L4.70017 11.9316C4.7173 15.8754 7.95242 19.1001 11.9001 19.1001C14.0652 19.1001 15.9485 18.2027 17.3002 16.6708C17.5926 16.3395 18.0981 16.3079 18.4294 16.6002C18.7607 16.8926 18.7923 17.3981 18.5 17.7294C16.8517 19.5975 14.535 20.7001 11.9001 20.7001C7.06872 20.7001 3.11719 16.759 3.10015 11.9314Z" fill="currentColor"/>
</svg>
