<svg width="24" height="24" viewBox="0 0 24 24" fill="none" xmlns="http://www.w3.org/2000/svg" data-karrot-ui-icon="true">
  <path fill-rule="evenodd" clip-rule="evenodd" d="M3.2002 5.0002C3.2002 3.45837 4.45837 2.2002 6.0002 2.2002H18.0002C19.542 2.2002 20.8002 3.45837 20.8002 5.0002V19.0002C20.8002 20.542 19.542 21.8002 18.0002 21.8002H6.0002C4.45837 21.8002 3.2002 20.542 3.2002 19.0002V5.0002ZM4.8002 5.0002C4.8002 4.34202 5.34202 3.8002 6.0002 3.8002H18.0002C18.6584 3.8002 19.2002 4.34202 19.2002 5.0002C19.2002 5.65837 18.6584 6.2002 18.0002 6.2002H6.0002C5.34202 6.2002 4.8002 5.65837 4.8002 5.0002ZM9.0002 9.2002C9.44202 9.2002 9.8002 9.55837 9.8002 10.0002C9.8002 10.9493 10.0817 11.7773 10.5053 12.3487C10.9263 12.9165 11.4562 13.2002 12.0002 13.2002C12.5442 13.2002 13.0741 12.9165 13.495 12.3487C13.9187 11.7773 14.2002 10.9493 14.2002 10.0002C14.2002 9.55837 14.5584 9.2002 15.0002 9.2002C15.442 9.2002 15.8002 9.55837 15.8002 10.0002C15.8002 11.2511 15.4317 12.423 14.7803 13.3016C14.1263 14.1839 13.1562 14.8002 12.0002 14.8002C10.8442 14.8002 9.8741 14.1839 9.22005 13.3016C8.56867 12.423 8.2002 11.2511 8.2002 10.0002C8.2002 9.55837 8.55837 9.2002 9.0002 9.2002Z" fill="currentColor"/>
</svg>
