<svg width="24" height="24" viewBox="0 0 24 24" fill="none" xmlns="http://www.w3.org/2000/svg" data-karrot-ui-icon="true">
  <path fill-rule="evenodd" clip-rule="evenodd" d="M4.80887 2.3999C4.14901 2.3999 3.55683 2.805 3.31766 3.41999L1.06367 9.21596C0.938431 9.53801 0.906975 9.92913 1.06635 10.3025C1.27152 10.7831 1.82256 11.8464 2.8999 12.3394V19.9999C2.8999 20.8836 3.61625 21.5999 4.4999 21.5999H19.4999C20.3836 21.5999 21.0999 20.8836 21.0999 19.9999V12.3393C22.1771 11.8462 22.7281 10.7831 22.9333 10.3025C23.0926 9.92913 23.0612 9.53801 22.9359 9.21596L20.6819 3.41999C20.4428 2.80499 19.8506 2.3999 19.1907 2.3999H4.80887ZM19.8999 12.5998C19.8916 12.5999 19.8832 12.5999 19.8748 12.5999C18.8359 12.5999 18.0911 12.0959 17.5997 11.5502C17.4669 11.4027 17.3507 11.2504 17.2498 11.101C17.1489 11.2504 17.0327 11.4027 16.8999 11.5502C16.4085 12.0959 15.6637 12.5999 14.6248 12.5999C13.5859 12.5999 12.8411 12.0959 12.3497 11.5502C12.2169 11.4027 12.1007 11.2504 11.9998 11.101C11.8989 11.2504 11.7827 11.4027 11.6499 11.5502C11.1585 12.0959 10.4137 12.5999 9.3748 12.5999C8.33588 12.5999 7.59112 12.0959 7.09975 11.5502C6.96692 11.4027 6.85074 11.2504 6.7498 11.101C6.64887 11.2504 6.53268 11.4027 6.39986 11.5502C5.90848 12.0959 5.16373 12.5999 4.1248 12.5999C4.11648 12.5999 4.10818 12.5999 4.0999 12.5998V19.9999C4.0999 20.2208 4.27899 20.3999 4.4999 20.3999H8.8999V17.4999C8.8999 15.7878 10.2878 14.3999 11.9999 14.3999C13.712 14.3999 15.0999 15.7878 15.0999 17.4999V20.3999H19.4999C19.7208 20.3999 19.8999 20.2208 19.8999 19.9999V12.5998ZM4.43607 3.85492C4.49586 3.70118 4.6439 3.5999 4.80887 3.5999H19.1907C19.3557 3.5999 19.5037 3.70118 19.5635 3.85492L21.8175 9.6509C21.8519 9.7393 21.8431 9.79966 21.8296 9.83135C21.5722 10.4343 20.9756 11.3999 19.8748 11.3999C19.2673 11.3999 18.8246 11.1171 18.4915 10.7472C18.1499 10.3678 17.9514 9.92331 17.8668 9.69927C17.7468 9.38129 17.4507 9.27599 17.2498 9.27599C17.049 9.27599 16.7528 9.38129 16.6328 9.69927C16.5483 9.92331 16.3497 10.3678 16.0081 10.7472C15.675 11.1171 15.2323 11.3999 14.6248 11.3999C14.0173 11.3999 13.5746 11.1171 13.2415 10.7472C12.8999 10.3678 12.7014 9.92331 12.6168 9.69927C12.4968 9.38129 12.2007 9.27599 11.9998 9.27599C11.799 9.27599 11.5028 9.38129 11.3828 9.69927C11.2983 9.92331 11.0997 10.3678 10.7581 10.7472C10.425 11.1171 9.98231 11.3999 9.3748 11.3999C8.7673 11.3999 8.32458 11.1171 7.99149 10.7472C7.64988 10.3678 7.45135 9.92331 7.36682 9.69927C7.24684 9.38129 6.95065 9.27599 6.7498 9.27599C6.54895 9.27599 6.25276 9.38129 6.13278 9.69927C6.04825 9.92331 5.84972 10.3678 5.50811 10.7472C5.17502 11.1171 4.73231 11.3999 4.1248 11.3999C3.02397 11.3999 2.42737 10.4343 2.17 9.83135C2.15647 9.79966 2.1477 9.73931 2.18208 9.6509L4.43607 3.85492ZM13.8999 17.4999V20.3999H10.0999V17.4999C10.0999 16.4506 10.9506 15.5999 11.9999 15.5999C13.0492 15.5999 13.8999 16.4506 13.8999 17.4999Z" fill="currentColor"/>
</svg>
