<svg width="24" height="24" viewBox="0 0 24 24" fill="none" xmlns="http://www.w3.org/2000/svg" data-karrot-ui-icon="true">
  <path fill-rule="evenodd" clip-rule="evenodd" d="M12 22C17.5228 22 22 17.5228 22 12C22 6.47715 17.5228 2 12 2C6.47715 2 2 6.47715 2 12C2 17.5228 6.47715 22 12 22ZM11.9998 6.29999C12.3864 6.29999 12.6998 6.61339 12.6998 6.99999V11.3H16.9998C17.3864 11.3 17.6998 11.6134 17.6998 12C17.6998 12.3866 17.3864 12.7 16.9998 12.7H12.6998V17C12.6998 17.3866 12.3864 17.7 11.9998 17.7C11.6132 17.7 11.2998 17.3866 11.2998 17V12.7H6.9998C6.61321 12.7 6.2998 12.3866 6.2998 12C6.2998 11.6134 6.61321 11.3 6.9998 11.3H11.2998V6.99999C11.2998 6.61339 11.6132 6.29999 11.9998 6.29999Z" fill="currentColor"/>
</svg>
