<svg width="24" height="24" viewBox="0 0 24 24" fill="none" xmlns="http://www.w3.org/2000/svg" data-karrot-ui-icon="true">
  <path d="M15.9932 11.4415C16.1818 11.169 16.1139 10.7952 15.8414 10.6066C15.569 10.418 15.1952 10.486 15.0066 10.7584L10.9493 16.6189L8.45547 13.7095C8.23981 13.4579 7.86103 13.4287 7.60944 13.6444C7.35784 13.86 7.32871 14.2388 7.54436 14.4904L10.5444 17.9904C10.6654 18.1316 10.8451 18.2087 11.0308 18.1991C11.2166 18.1896 11.3874 18.0944 11.4932 17.9415L15.9932 11.4415Z" fill="currentColor"/>
  <path fill-rule="evenodd" clip-rule="evenodd" d="M7.8002 2C8.13157 2 8.4002 2.26863 8.4002 2.6V3.29993H15.2002V2.6C15.2002 2.26863 15.4688 2 15.8002 2C16.1316 2 16.4002 2.26863 16.4002 2.6V3.29993H20.8C21.2418 3.29993 21.6 3.6581 21.6 4.09993V19.2499C21.6 20.9068 20.2569 22.2499 18.6 22.2499H5C3.34315 22.2499 2 20.9068 2 19.2499V4.09993C2 3.6581 2.35817 3.29993 2.8 3.29993H7.2002V2.6C7.2002 2.26863 7.46882 2 7.8002 2ZM15.2002 4.49993V5.6C15.2002 5.93137 15.4688 6.2 15.8002 6.2C16.1316 6.2 16.4002 5.93137 16.4002 5.6V4.49993H20.4V7.5H3.2V4.49993H7.2002V5.6C7.2002 5.93137 7.46882 6.2 7.8002 6.2C8.13157 6.2 8.4002 5.93137 8.4002 5.6V4.49993H15.2002ZM3.2 8.7H20.4V19.2499C20.4 20.244 19.5941 21.0499 18.6 21.0499H5C4.00589 21.0499 3.2 20.244 3.2 19.2499V8.7Z" fill="currentColor"/>
</svg>
