<svg width="24" height="24" viewBox="0 0 24 24" fill="none" xmlns="http://www.w3.org/2000/svg" data-karrot-ui-icon="true">
  <rect x="4" y="12" width="2.66667" height="2.66667" fill="currentColor"/>
  <path d="M2.66675 15.3332C2.66675 14.965 2.96522 14.6665 3.33341 14.6665H20.6667C21.0349 14.6665 21.3334 14.965 21.3334 15.3332C21.3334 15.7014 21.0349 15.9998 20.6667 15.9998H3.33341C2.96522 15.9998 2.66675 15.7014 2.66675 15.3332Z" fill="currentColor"/>
  <rect x="17.3333" y="12" width="2.66667" height="2.66667" fill="currentColor"/>
  <path d="M20 20.8891V17.3335H4V20.8891C4 21.8709 4.59695 22.6668 5.33333 22.6668H18.6667C19.403 22.6668 20 21.8709 20 20.8891Z" fill="currentColor"/>
  <path d="M11.3334 2.6665H8.68799L8.04733 9.97006C8.49698 10.4055 9.0706 10.6665 9.69538 10.6665C10.295 10.6665 10.8733 10.4259 11.3334 10.0214L11.3334 2.6665Z" fill="currentColor"/>
  <path d="M12.6667 10.0214C13.1269 10.4259 13.7052 10.6665 14.3048 10.6665C14.9296 10.6665 15.5032 10.4055 15.9528 9.96999L15.3122 2.6665H12.6667V10.0214Z" fill="currentColor"/>
  <path d="M16.6506 2.6665L17.3044 10.1191C17.7253 10.4644 18.2355 10.6665 18.7853 10.6665C19.8791 10.6665 20.816 10.1218 21.2055 9.1101C21.475 8.41026 21.2721 7.63831 21.0244 6.93047L19.8445 3.55937C19.6573 3.02459 19.1526 2.6665 18.586 2.6665H16.6506Z" fill="currentColor"/>
  <path d="M7.34954 2.6665H5.41417C4.84757 2.6665 4.34286 3.02459 4.15569 3.55937L2.9758 6.93047C2.72806 7.63831 2.52512 8.41026 2.79461 9.1101C3.1842 10.1218 4.12104 10.6665 5.21484 10.6665C5.76469 10.6665 6.27487 10.4643 6.69581 10.1191L7.34954 2.6665Z" fill="currentColor"/>
</svg>
