<svg width="24" height="24" viewBox="0 0 24 24" fill="none" xmlns="http://www.w3.org/2000/svg" data-karrot-ui-icon="true">
  <path fill-rule="evenodd" clip-rule="evenodd" d="M9.2 15C9.2 13.4536 10.4536 12.2 12 12.2C13.5464 12.2 14.8 13.4536 14.8 15C14.8 16.5463 13.5464 17.8 12 17.8C10.4536 17.8 9.2 16.5463 9.2 15ZM12 13.8C11.3373 13.8 10.8 14.3372 10.8 15C10.8 15.6627 11.3373 16.2 12 16.2C12.6627 16.2 13.2 15.6627 13.2 15C13.2 14.3372 12.6627 13.8 12 13.8Z" fill="currentColor"/>
  <path fill-rule="evenodd" clip-rule="evenodd" d="M18 10.6H6C5.77909 10.6 5.6 10.779 5.6 11V20C5.6 20.2209 5.77909 20.4 6 20.4H18C18.2209 20.4 18.4 20.2209 18.4 20V11C18.4 10.779 18.2209 10.6 18 10.6ZM6 8.99995C4.89543 8.99995 4 9.89538 4 11V20C4 21.1045 4.89543 22 6 22H18C19.1046 22 20 21.1045 20 20V11C20 9.89538 19.1046 8.99995 18 8.99995H6Z" fill="currentColor"/>
  <path d="M15.15 9V6.94995C15.15 5.21025 13.7397 3.79995 12 3.79995C10.2603 3.79995 8.85 5.21025 8.85 6.94995V9H7.25V6.94995C7.25 4.3266 9.37665 2.19995 12 2.19995C14.6234 2.19995 16.75 4.3266 16.75 6.94995V9H15.15Z" fill="currentColor"/>
</svg>
