<svg width="24" height="24" viewBox="0 0 24 24" fill="none" xmlns="http://www.w3.org/2000/svg" data-karrot-ui-icon="true">
  <path fill-rule="evenodd" clip-rule="evenodd" d="M3.43427 3.43427C3.74669 3.12185 4.25322 3.12185 4.56564 3.43427L12 10.8686L19.4343 3.43427C19.7467 3.12185 20.2532 3.12185 20.5656 3.43427C20.8781 3.74669 20.8781 4.25322 20.5656 4.56564L13.1313 12L20.5656 19.4343C20.8781 19.7467 20.8781 20.2532 20.5656 20.5656C20.2532 20.8781 19.7467 20.8781 19.4343 20.5656L12 13.1313L4.56564 20.5656C4.25322 20.8781 3.74669 20.8781 3.43427 20.5656C3.12185 20.2532 3.12185 19.7467 3.43427 19.4343L10.8686 12L3.43427 4.56564C3.12185 4.25322 3.12185 3.74669 3.43427 3.43427Z" fill="currentColor"/>
</svg>
