<svg width="24" height="24" viewBox="0 0 24 24" fill="none" xmlns="http://www.w3.org/2000/svg" data-karrot-ui-icon="true">
  <path d="M6.3999 11.9999C6.3999 11.6685 6.66853 11.3999 6.9999 11.3999H11.3999V6.9999C11.3999 6.66853 11.6685 6.3999 11.9999 6.3999C12.3313 6.3999 12.5999 6.66853 12.5999 6.9999V11.3999H16.9999C17.3313 11.3999 17.5999 11.6685 17.5999 11.9999C17.5999 12.3313 17.3313 12.5999 16.9999 12.5999H12.5999V16.9999C12.5999 17.3313 12.3313 17.5999 11.9999 17.5999C11.6685 17.5999 11.3999 17.3313 11.3999 16.9999V12.5999H6.9999C6.66853 12.5999 6.3999 12.3313 6.3999 11.9999Z" fill="currentColor"/>
  <path fill-rule="evenodd" clip-rule="evenodd" d="M1.3999 11.9999C1.3999 6.14568 6.14568 1.3999 11.9999 1.3999C17.8541 1.3999 22.5999 6.14568 22.5999 11.9999C22.5999 17.8541 17.8541 22.5999 11.9999 22.5999C6.14568 22.5999 1.3999 17.8541 1.3999 11.9999ZM11.9999 2.5999C6.80843 2.5999 2.5999 6.80843 2.5999 11.9999C2.5999 17.1914 6.80843 21.3999 11.9999 21.3999C17.1914 21.3999 21.3999 17.1914 21.3999 11.9999C21.3999 6.80843 17.1914 2.5999 11.9999 2.5999Z" fill="currentColor"/>
</svg>
