<svg width="24" height="24" viewBox="0 0 24 24" fill="none" xmlns="http://www.w3.org/2000/svg" data-karrot-ui-icon="true">
  <path fill-rule="evenodd" clip-rule="evenodd" d="M10.9843 2.82759C11.3601 1.92417 12.6399 1.92417 13.0156 2.82759L15.3228 8.37462L21.3112 8.85471C22.2866 8.9329 22.682 10.1501 21.9389 10.7866L17.3764 14.6949L18.7703 20.5387C18.9973 21.4904 17.962 22.2427 17.1269 21.7326L12 18.6011L6.873 21.7326C6.03799 22.2427 5.00261 21.4904 5.22964 20.5387L6.62358 14.6949L2.06099 10.7866C1.31791 10.1501 1.71338 8.9329 2.6887 8.85471L8.67718 8.37462L10.9843 2.82759ZM12 3.51042L9.76171 8.89185C9.6033 9.27271 9.24513 9.53293 8.83396 9.5659L3.02426 10.0317L7.45064 13.8233C7.7639 14.0917 7.90071 14.5127 7.80501 14.914L6.45267 20.5832L11.4266 17.5452C11.7786 17.3302 12.2213 17.3302 12.5733 17.5452L17.5473 20.5832L16.1949 14.914C16.0992 14.5127 16.236 14.0917 16.5493 13.8233L20.9757 10.0317L15.166 9.5659C14.7548 9.53293 14.3966 9.27271 14.2382 8.89185L12 3.51042Z" fill="currentColor"/>
</svg>
