<svg width="24" height="24" viewBox="0 0 24 24" fill="none" xmlns="http://www.w3.org/2000/svg" data-karrot-ui-icon="true">
  <path fill-rule="evenodd" clip-rule="evenodd" d="M12.0004 1.19995C12.6122 1.19995 13.1081 1.69587 13.1081 2.30762V3.6293C13.1081 3.6536 13.1073 3.67772 13.1058 3.70162C14.5906 3.89758 15.9526 4.48271 17.0862 5.35119C17.1022 5.33297 17.1189 5.31516 17.1362 5.29777L18.0708 4.3632C18.5034 3.93063 19.2047 3.93063 19.6373 4.3632C20.0699 4.79578 20.0699 5.49711 19.6373 5.92968L18.7027 6.86425C18.6853 6.88167 18.6675 6.89838 18.6492 6.91439C19.5175 8.04792 20.1024 9.40992 20.2983 10.8946C20.3223 10.893 20.3465 10.8923 20.3708 10.8923H21.6925C22.3043 10.8923 22.8002 11.3882 22.8002 11.9999C22.8002 12.6117 22.3043 13.1076 21.6925 13.1076H20.3708C20.3465 13.1076 20.3223 13.1068 20.2983 13.1053C20.1024 14.59 19.5174 15.952 18.6491 17.0856C18.6673 17.1015 18.6851 17.1182 18.7025 17.1356L19.637 18.0702C20.0696 18.5027 20.0696 19.2041 19.637 19.6366C19.2045 20.0692 18.5031 20.0692 18.0706 19.6366L17.136 18.7021C17.1186 18.6847 17.102 18.6669 17.086 18.6487C15.9525 19.5171 14.5905 20.1022 13.1057 20.2981C13.1073 20.3221 13.1081 20.3463 13.1081 20.3706V21.6923C13.1081 22.304 12.6122 22.8 12.0004 22.8C11.3887 22.8 10.8927 22.304 10.8927 21.6923V20.3706C10.8927 20.3463 10.8935 20.3222 10.8951 20.2983C9.41025 20.1025 8.04813 19.5175 6.9145 18.6492C6.89863 18.6672 6.88208 18.6849 6.86484 18.7021L5.93026 19.6367C5.49769 20.0693 4.79636 20.0693 4.36379 19.6367C3.93121 19.2041 3.93121 18.5028 4.36378 18.0702L5.29835 17.1357C5.31557 17.1184 5.3332 17.1019 5.35123 17.0861C4.4827 15.9524 3.89755 14.5902 3.70165 13.1053C3.67781 13.1068 3.65377 13.1076 3.62955 13.1076H2.30786C1.69612 13.1076 1.2002 12.6117 1.2002 11.9999C1.2002 11.3882 1.69612 10.8923 2.30786 10.8923H3.62955C3.65377 10.8923 3.6778 10.893 3.70164 10.8946C3.89752 9.40967 4.48262 8.04749 5.3511 6.91386C5.33303 6.89799 5.31535 6.88142 5.2981 6.86417L4.36353 5.9296C3.93096 5.49703 3.93096 4.7957 4.36353 4.36312C4.7961 3.93055 5.49744 3.93055 5.93001 4.36312L6.86458 5.29769C6.88184 5.31496 6.89842 5.33265 6.9143 5.35074C8.04797 4.48233 9.41016 3.89731 10.8951 3.70151C10.8935 3.67764 10.8927 3.65356 10.8927 3.6293V2.30762C10.8927 1.69587 11.3887 1.19995 12.0004 1.19995ZM12.0001 15.0839C13.7034 15.0839 15.0841 13.7032 15.0841 12C15.0841 10.2968 13.7034 8.91607 12.0001 8.91607C10.2969 8.91607 8.91623 10.2968 8.91623 12C8.91623 13.7032 10.2969 15.0839 12.0001 15.0839Z" fill="currentColor"/>
</svg>
