<svg width="24" height="24" viewBox="0 0 24 24" fill="none" xmlns="http://www.w3.org/2000/svg" data-karrot-ui-icon="true">
  <mask id="path-1-inside-1_12571_4011" fill="white">
    <path fill-rule="evenodd" clip-rule="evenodd" d="M1 4.99995C1 3.45355 2.2536 2.19995 3.8 2.19995L20.2 2.19995C21.7464 2.19995 23 3.45355 23 4.99995V19C23 20.5463 21.7464 21.7999 20.2 21.7999H3.8C2.2536 21.7999 1 20.5463 1 19V4.99995ZM3.8 3.79995C3.13726 3.79995 2.6 4.33721 2.6 4.99995V19C2.6 19.6627 3.13726 20.2 3.8 20.2H20.2C20.8627 20.2 21.4 19.6627 21.4 19V4.99995C21.4 4.33721 20.8627 3.79995 20.2 3.79995H3.8Z"/>
    <path fill-rule="evenodd" clip-rule="evenodd" d="M1 7.99995C1 7.55812 1.35817 7.19995 1.8 7.19995H22.2C22.6418 7.19995 23 7.55812 23 7.99995C23 8.44178 22.6418 8.79995 22.2 8.79995H1.8C1.35817 8.79995 1 8.44178 1 7.99995Z"/>
    <path fill-rule="evenodd" clip-rule="evenodd" d="M4.19995 17C4.19995 16.5581 4.55812 16.2 4.99995 16.2H9.99995C10.4418 16.2 10.8 16.5581 10.8 17C10.8 17.4418 10.4418 17.8 9.99995 17.8H4.99995C4.55812 17.8 4.19995 17.4418 4.19995 17Z"/>
  </mask>
  <path d="M3.8 2.19995V3.79995V2.19995ZM20.2 2.19995V0.599951V2.19995ZM1.8 7.19995V5.59995V7.19995ZM22.2 7.19995V8.79995V7.19995ZM22.2 8.79995V10.4V8.79995ZM1.8 8.79995V7.19995V8.79995ZM4.99995 16.2V14.6V16.2ZM9.99995 16.2V17.8V16.2ZM9.99995 17.8V19.4V17.8ZM4.99995 17.8V16.2V17.8ZM3.8 0.599951C1.36995 0.599951 -0.6 2.5699 -0.6 4.99995H2.6C2.6 4.33721 3.13726 3.79995 3.8 3.79995V0.599951ZM20.2 0.599951H3.8V3.79995H20.2V0.599951ZM24.6 4.99995C24.6 2.5699 22.6301 0.599951 20.2 0.599951V3.79995C20.8627 3.79995 21.4 4.33721 21.4 4.99995H24.6ZM24.6 19V4.99995H21.4V19H24.6ZM20.2 23.4C22.6301 23.4 24.6 21.43 24.6 19H21.4C21.4 19.6627 20.8627 20.1999 20.2 20.1999V23.4ZM3.8 23.4H20.2V20.1999H3.8V23.4ZM-0.6 19C-0.6 21.43 1.36995 23.4 3.8 23.4V20.1999C3.13726 20.1999 2.6 19.6627 2.6 19H-0.6ZM-0.6 4.99995V19H2.6V4.99995H-0.6ZM4.2 4.99995C4.2 5.22087 4.02091 5.39995 3.8 5.39995V2.19995C2.2536 2.19995 1 3.45355 1 4.99995H4.2ZM4.2 19V4.99995H1V19H4.2ZM3.8 18.6C4.02092 18.6 4.2 18.779 4.2 19H1C1 20.5463 2.2536 21.8 3.8 21.8V18.6ZM20.2 18.6H3.8V21.8H20.2V18.6ZM19.8 19C19.8 18.779 19.9791 18.6 20.2 18.6V21.8C21.7464 21.8 23 20.5463 23 19H19.8ZM19.8 4.99995V19H23V4.99995H19.8ZM20.2 5.39995C19.9791 5.39995 19.8 5.22087 19.8 4.99995H23C23 3.45355 21.7464 2.19995 20.2 2.19995V5.39995ZM3.8 5.39995H20.2V2.19995H3.8V5.39995ZM1.8 5.59995C0.474516 5.59995 -0.6 6.67447 -0.6 7.99995H2.6C2.6 8.44178 2.24183 8.79995 1.8 8.79995V5.59995ZM22.2 5.59995H1.8V8.79995H22.2V5.59995ZM24.6 7.99995C24.6 6.67447 23.5255 5.59995 22.2 5.59995V8.79995C21.7582 8.79995 21.4 8.44178 21.4 7.99995H24.6ZM22.2 10.4C23.5255 10.4 24.6 9.32543 24.6 7.99995H21.4C21.4 7.55812 21.7582 7.19995 22.2 7.19995V10.4ZM1.8 10.4H22.2V7.19995H1.8V10.4ZM-0.6 7.99995C-0.6 9.32544 0.474517 10.4 1.8 10.4V7.19995C2.24183 7.19995 2.6 7.55812 2.6 7.99995H-0.6ZM4.99995 14.6C3.67447 14.6 2.59995 15.6745 2.59995 17H5.79995C5.79995 17.4418 5.44178 17.8 4.99995 17.8V14.6ZM9.99995 14.6H4.99995V17.8H9.99995V14.6ZM12.4 17C12.4 15.6745 11.3254 14.6 9.99995 14.6V17.8C9.55812 17.8 9.19995 17.4418 9.19995 17H12.4ZM9.99995 19.4C11.3254 19.4 12.4 18.3254 12.4 17H9.19995C9.19995 16.5581 9.55812 16.2 9.99995 16.2V19.4ZM4.99995 19.4H9.99995V16.2H4.99995V19.4ZM2.59995 17C2.59995 18.3254 3.67447 19.4 4.99995 19.4V16.2C5.44178 16.2 5.79995 16.5581 5.79995 17H2.59995Z" fill="currentColor" mask="url(#path-1-inside-1_12571_4011)"/>
</svg>
