<svg width="24" height="24" viewBox="0 0 24 24" fill="none" xmlns="http://www.w3.org/2000/svg" data-karrot-ui-icon="true">
  <path d="M8 12.4999C8.55 12.4999 9 12.9499 9 13.4999C9 14.0499 8.55 14.4999 8 14.4999C7.45 14.4999 7 14.0499 7 13.4999C7 12.9499 7.45 12.4999 8 12.4999Z" fill="currentColor"/>
  <path d="M9 17.4999C9 16.9499 8.55 16.4999 8 16.4999C7.45 16.4999 7 16.9499 7 17.4999C7 18.0499 7.45 18.4999 8 18.4999C8.55 18.4999 9 18.0499 9 17.4999Z" fill="currentColor"/>
  <path d="M13 13.4999C13 12.9499 12.55 12.4999 12 12.4999C11.45 12.4999 11 12.9499 11 13.4999C11 14.0499 11.45 14.4999 12 14.4999C12.55 14.4999 13 14.0499 13 13.4999Z" fill="currentColor"/>
  <path d="M13 17.4999C13 16.9499 12.55 16.4999 12 16.4999C11.45 16.4999 11 16.9499 11 17.4999C11 18.0499 11.45 18.4999 12 18.4999C12.55 18.4999 13 18.0499 13 17.4999Z" fill="currentColor"/>
  <path d="M17 13.4999C17 12.9499 16.55 12.4999 16 12.4999C15.45 12.4999 15 12.9499 15 13.4999C15 14.0499 15.45 14.4999 16 14.4999C16.55 14.4999 17 14.0499 17 13.4999Z" fill="currentColor"/>
  <path d="M17 17.4999C17 16.9499 16.55 16.4999 16 16.4999C15.45 16.4999 15 16.9499 15 17.4999C15 18.0499 15.45 18.4999 16 18.4999C16.55 18.4999 17 18.0499 17 17.4999Z" fill="currentColor"/>
  <path fill-rule="evenodd" clip-rule="evenodd" d="M8.5999 2.4999C8.5999 2.16853 8.33127 1.8999 7.9999 1.8999C7.66853 1.8999 7.3999 2.16853 7.3999 2.4999V3.8999H2.9999C2.66853 3.8999 2.3999 4.16853 2.3999 4.4999V21.4999C2.3999 21.8313 2.66853 22.0999 2.9999 22.0999H20.9999C21.3313 22.0999 21.5999 21.8313 21.5999 21.4999V4.4999C21.5999 4.16853 21.3313 3.8999 20.9999 3.8999H16.5999V2.4999C16.5999 2.16853 16.3313 1.8999 15.9999 1.8999C15.6685 1.8999 15.3999 2.16853 15.3999 2.4999V3.8999H8.5999V2.4999ZM7.3999 5.0999V6.4999C7.3999 6.83127 7.66853 7.0999 7.9999 7.0999C8.33127 7.0999 8.5999 6.83127 8.5999 6.4999V5.0999H15.3999V6.4999C15.3999 6.83127 15.6685 7.0999 15.9999 7.0999C16.3313 7.0999 16.5999 6.83127 16.5999 6.4999V5.0999H20.3999V8.8999H3.5999V5.0999H7.3999ZM3.5999 10.0999V20.8999H20.3999V10.0999H3.5999Z" fill="currentColor"/>
</svg>
