<svg width="24" height="24" viewBox="0 0 24 24" fill="none" xmlns="http://www.w3.org/2000/svg" data-karrot-ui-icon="true">
  <path d="M7.30005 19.5H6.4501V2.5H4.8501V19.5H4.10005C3.65822 19.5 3.30005 19.8582 3.30005 20.3C3.30005 20.7418 3.65822 21.1 4.10005 21.1H7.30005C7.74188 21.1 8.10005 20.7418 8.10005 20.3C8.10005 19.8582 7.74188 19.5 7.30005 19.5Z" fill="currentColor"/>
  <path fill-rule="evenodd" clip-rule="evenodd" d="M21 2.50977H7.19995V15.1098H21C21.3166 15.1098 21.6035 14.923 21.7316 14.6334C21.8597 14.3438 21.8049 14.0059 21.5919 13.7716L17.0811 8.80977L21.5919 3.8479C21.8049 3.6136 21.8597 3.27571 21.7316 2.98612C21.6035 2.69654 21.3166 2.50977 21 2.50977ZM8.79995 13.5098V4.10977H19.1915L15.408 8.27163C15.1306 8.57676 15.1306 9.04277 15.408 9.3479L19.1915 13.5098H8.79995Z" fill="currentColor"/>
</svg>
