<svg width="24" height="24" viewBox="0 0 24 24" fill="none" xmlns="http://www.w3.org/2000/svg" data-karrot-ui-icon="true">
  <path fill-rule="evenodd" clip-rule="evenodd" d="M11.9999 4C12.3631 4 12.6575 4.29439 12.6575 4.65755V11.3425H19.3425C19.7056 11.3425 20 11.6369 20 12.0001C20 12.3632 19.7056 12.6576 19.3425 12.6576H12.6575V19.3425C12.6575 19.7056 12.3631 20 11.9999 20C11.6368 20 11.3424 19.7056 11.3424 19.3425V12.6576H4.65754C4.29439 12.6576 4 12.3632 4 12.0001C4 11.6369 4.29439 11.3425 4.65754 11.3425H11.3424V4.65755C11.3424 4.29439 11.6368 4 11.9999 4Z" fill="currentColor"/>
</svg>
