<svg width="24" height="24" viewBox="0 0 24 24" fill="none" xmlns="http://www.w3.org/2000/svg" data-karrot-ui-icon="true">
  <path d="M6 2C3.79086 2 2 3.79086 2 6V18C2 20.2091 3.79086 22 6 22H12C12.5523 22 13 21.5523 13 21C13 20.4477 12.5523 20 12 20H6C4.89543 20 4 19.1046 4 18V6C4 4.89543 4.89543 4 6 4H18C19.1046 4 20 4.89543 20 6V12C20 12.5523 20.4477 13 21 13C21.5523 13 22 12.5523 22 12V6C22 3.79086 20.2091 2 18 2H6Z" fill="currentColor"/>
  <path d="M8 8C7.44772 8 7 8.44772 7 9C7 9.55228 7.44772 10 8 10H16C16.5523 10 17 9.55228 17 9C17 8.44772 16.5523 8 16 8H8Z" fill="currentColor"/>
  <path d="M8 13C7.44772 13 7 13.4477 7 14C7 14.5523 7.44772 15 8 15H13C13.5523 15 14 14.5523 14 14C14 13.4477 13.5523 13 13 13H8Z" fill="currentColor"/>
  <path d="M18 14C17.4477 14 17 14.4477 17 15V17H15C14.4477 17 14 17.4477 14 18C14 18.5523 14.4477 19 15 19H17V21C17 21.5523 17.4477 22 18 22C18.5523 22 19 21.5523 19 21V19H21C21.5523 19 22 18.5523 22 18C22 17.4477 21.5523 17 21 17H19V15C19 14.4477 18.5523 14 18 14Z" fill="currentColor"/>
</svg>
