<svg width="24" height="24" viewBox="0 0 24 24" fill="none" xmlns="http://www.w3.org/2000/svg" data-karrot-ui-icon="true">
  <path fill-rule="evenodd" clip-rule="evenodd" d="M9.10051 3.26901C9.19904 2.79002 9.61013 2.3999 10.151 2.3999H13.8537C14.3848 2.3999 14.7996 2.77882 14.9025 3.24576C14.9057 3.26052 14.9084 3.2754 14.9105 3.29037L15.1207 4.76719C15.1681 5.10027 15.4093 5.42417 15.7856 5.64128C16.1366 5.84379 16.5099 5.88476 16.815 5.7653L18.2941 5.1862C18.3014 5.18336 18.3087 5.18066 18.3161 5.1781C18.7841 5.01557 19.312 5.17871 19.5907 5.61902L19.5991 5.63263L21.4471 8.73216C21.7456 9.21315 21.5805 9.79726 21.2006 10.0995L21.1896 10.1082L19.9375 11.057C19.6822 11.2505 19.5294 11.589 19.5294 11.9999C19.5294 12.3973 19.682 12.7342 19.926 12.9191L21.1895 13.8767C21.2015 13.8858 21.2131 13.8954 21.2244 13.9053C21.5628 14.2045 21.7542 14.7582 21.4471 15.2527L19.5991 18.3522L19.5907 18.3658C19.312 18.8061 18.7841 18.9692 18.3161 18.8067C18.3087 18.8041 18.3014 18.8014 18.2941 18.7986L16.8194 18.2212C16.5123 18.101 16.1305 18.1432 15.7736 18.3472C15.4048 18.5579 15.1691 18.8775 15.1214 19.2125L14.9105 20.6944C14.9088 20.7066 14.9067 20.7187 14.9042 20.7308C14.8057 21.2098 14.3946 21.5999 13.8537 21.5999H10.151C9.61991 21.5999 9.20518 21.221 9.10227 20.754C9.09901 20.7393 9.09632 20.7244 9.09419 20.7094L8.88402 19.2326C8.83662 18.8995 8.59542 18.5756 8.21913 18.3585C7.86813 18.156 7.49484 18.115 7.18971 18.2345L5.71059 18.8136C5.70334 18.8164 5.69603 18.8191 5.68867 18.8217C5.22061 18.9842 4.69273 18.8211 4.41404 18.3808L4.40568 18.3672L2.55766 15.2677C2.26915 14.8032 2.39691 14.2456 2.7649 13.9203C2.77618 13.9104 2.78784 13.9008 2.79984 13.8917L4.0518 12.9428C4.30712 12.7493 4.45987 12.4108 4.45987 11.9999C4.45987 11.58 4.31082 11.2416 4.06589 11.0559L2.81527 10.1081C2.80327 10.099 2.79161 10.0894 2.78033 10.0795C2.44192 9.78035 2.2505 9.22658 2.55767 8.73206L4.40568 5.63263L4.41404 5.61902C4.69273 5.17871 5.22061 5.01557 5.68867 5.1781C5.69603 5.18066 5.70334 5.18336 5.71059 5.1862L7.18079 5.76181C7.48822 5.88217 7.87128 5.84012 8.24051 5.63647C8.60263 5.43676 8.83536 5.12409 8.88164 4.79888L9.09419 3.30537C9.09592 3.29319 9.09803 3.28106 9.10051 3.26901ZM10.2644 3.5999L10.0697 4.96795C9.95888 5.7465 9.43418 6.34854 8.82006 6.68725C8.22311 7.01649 7.46331 7.16112 6.7433 6.87922L5.37819 6.34475L3.65337 9.23757L4.79073 10.0996C5.41901 10.5758 5.65987 11.3241 5.65987 11.9999C5.65987 12.6912 5.39976 13.4269 4.77664 13.8992L3.64857 14.7542L5.37819 17.6551L6.75222 17.1171C7.4659 16.8377 8.22214 16.9749 8.81883 17.3191C9.42486 17.6688 9.95967 18.2738 10.0721 19.0635L10.2622 20.3999H13.7404L13.9334 19.0435C14.0448 18.2604 14.5663 17.655 15.1781 17.3053C15.7761 16.9635 16.5397 16.823 17.2568 17.1038L18.6265 17.6401L20.3514 14.7472L19.2011 13.8755C18.5888 13.4114 18.3294 12.6769 18.3294 11.9999C18.3294 11.3086 18.5896 10.5729 19.2127 10.1006L20.3514 9.23757L18.6265 6.34475L17.2525 6.88271C16.5388 7.16213 15.7826 7.02495 15.1859 6.68068C14.5799 6.33102 14.0451 5.72596 13.9327 4.93626L13.7425 3.5999H10.2644ZM3.57667 9.36579L3.57903 9.36196L3.57667 9.36579Z" fill="currentColor"/>
  <path fill-rule="evenodd" clip-rule="evenodd" d="M8.35584 11.9999C8.35584 9.98731 9.98737 8.35578 12 8.35578C14.0126 8.35578 15.6441 9.98731 15.6441 11.9999C15.6441 14.0125 14.0126 15.644 12 15.644C9.98737 15.644 8.35584 14.0125 8.35584 11.9999ZM12 9.55579C10.6501 9.55579 9.55584 10.6501 9.55584 11.9999C9.55584 13.3498 10.6501 14.444 12 14.444C13.3498 14.444 14.4441 13.3498 14.4441 11.9999C14.4441 10.6501 13.3498 9.55579 12 9.55579Z" fill="currentColor"/>
</svg>
