<svg width="24" height="24" viewBox="0 0 24 24" fill="none" xmlns="http://www.w3.org/2000/svg" data-karrot-ui-icon="true">
  <path d="M13.658 14.3206C13.4847 14.2339 13.2866 14.2958 13.1628 14.4691C13.1406 14.5002 13.11 14.5488 13.0726 14.6083C12.901 14.8811 12.5841 15.385 12.259 15.4968C12.0237 15.571 11.7885 15.3977 11.9742 14.4072C12.1599 13.4168 12.878 9.57866 12.9028 9.43009C12.9275 9.28152 12.8656 9.20723 12.8285 9.17009C12.779 9.12056 12.6923 9.07104 12.5437 9.10818C12.519 9.12056 11.9866 9.28152 11.4542 9.44247L10.439 9.76437C10.2161 9.82628 10.1047 10.012 10.1542 10.2101C10.179 10.3091 10.2409 10.4082 10.3275 10.4577C10.4142 10.5196 10.5132 10.532 10.6123 10.5072C10.6618 10.4948 10.7609 10.4701 10.8723 10.4329C10.9094 10.4206 10.9466 10.4113 10.9837 10.402C11.0209 10.3927 11.058 10.3834 11.0951 10.371C10.9466 11.151 10.3523 14.1101 10.3523 14.1101C10.2285 14.8158 10.1913 15.2987 10.2656 15.6082C10.3523 15.9672 10.5628 16.2272 10.8971 16.3882C11.0828 16.4625 11.2809 16.512 11.4913 16.5244C11.6523 16.5244 11.8132 16.512 11.999 16.4748C12.6923 16.3387 13.1628 15.831 13.3856 15.5339C13.5961 15.2615 13.7323 14.9891 13.819 14.8034C13.9056 14.6177 13.8437 14.4196 13.658 14.3206Z" fill="currentColor"/>
  <path d="M12 7.98095C12.547 7.98095 12.9905 7.5375 12.9905 6.99048C12.9905 6.44345 12.547 6 12 6C11.453 6 11.0095 6.44345 11.0095 6.99048C11.0095 7.5375 11.453 7.98095 12 7.98095Z" fill="currentColor"/>
  <path fill-rule="evenodd" clip-rule="evenodd" d="M12.7037 22.1578C12.9251 21.9975 13.2263 21.7724 13.5822 21.489C14.3465 20.8802 15.3668 19.9988 16.3889 18.9091C18.4141 16.7499 20.5332 13.6803 20.5332 10.2354C20.5332 5.40642 16.7263 1.4668 11.9999 1.4668C7.27346 1.4668 3.46655 5.40642 3.46655 10.2354C3.46655 13.6803 5.5857 16.7499 7.61088 18.9091C8.63295 19.9988 9.65328 20.8802 10.4176 21.489C10.7734 21.7724 11.0747 21.9975 11.296 22.1578C11.716 22.462 12.2838 22.462 12.7037 22.1578ZM11.9999 21.1859C11.7917 21.0352 11.5052 20.8212 11.1653 20.5504C10.4332 19.9672 9.45856 19.1249 8.48614 18.0882C6.51754 15.9893 4.66655 13.2087 4.66655 10.2354C4.66655 6.03704 7.96788 2.6668 11.9999 2.6668C16.0319 2.6668 19.3332 6.03704 19.3332 10.2354C19.3332 13.2087 17.4822 15.9893 15.5136 18.0882C14.5412 19.1249 13.5666 19.9672 12.8345 20.5504C12.4946 20.8212 12.208 21.0352 11.9999 21.1859Z" fill="currentColor"/>
</svg>
