<svg width="24" height="24" viewBox="0 0 24 24" fill="none" xmlns="http://www.w3.org/2000/svg" data-karrot-ui-icon="true">
  <path fill-rule="evenodd" clip-rule="evenodd" d="M12.6201 4.83008C12.1782 4.83008 11.8201 5.18825 11.8201 5.63008C11.8201 6.07191 12.1782 6.43008 12.6201 6.43008H14.0551L14.718 8.29824L10.0685 8.77773L9.91867 8.48013H10.1201C10.5619 8.48013 10.9201 8.12195 10.9201 7.68013C10.9201 7.2383 10.5619 6.88013 10.1201 6.88013H7.12007C6.67824 6.88013 6.32007 7.2383 6.32007 7.68013C6.32007 8.12195 6.67824 8.48013 7.12007 8.48013H8.12723L8.67967 9.5771L7.68988 11.0837C7.17107 10.8562 6.59779 10.73 5.99502 10.73C3.66162 10.73 1.77002 12.6216 1.77002 14.955C1.77002 17.2884 3.66162 19.18 5.99502 19.18C8.06366 19.18 9.78507 17.6933 10.1491 15.7301H12.1201C12.4098 15.7301 12.6769 15.5734 12.8183 15.3206L15.5052 10.5167L15.799 11.3448C14.5823 12.0865 13.77 13.4259 13.77 14.955C13.77 17.2884 15.6616 19.18 17.995 19.18C20.3284 19.18 22.22 17.2884 22.22 14.955C22.22 12.6216 20.3284 10.73 17.995 10.73C17.7579 10.73 17.5253 10.7495 17.2988 10.7871L15.374 5.36255C15.2607 5.04336 14.9588 4.83008 14.6201 4.83008H12.6201ZM10.1395 14.1301H10.8543L9.48977 11.258L9.00728 11.9924C9.57385 12.5684 9.97647 13.3062 10.1395 14.1301ZM10.8106 10.3097L12.178 13.1877L13.97 9.98387L10.8106 10.3097Z" fill="currentColor"/>
</svg>
