<svg width="24" height="24" viewBox="0 0 24 24" fill="none" xmlns="http://www.w3.org/2000/svg" data-karrot-ui-icon="true">
  <path d="M5.99998 20V21C5.99998 21.5523 6.47968 22 7.07141 22H19.9286C20.5203 22 21 21.5523 21 21V5.99999C21 5.4477 20.5203 4.99999 19.9286 4.99999H19V19C19 19.5523 18.5203 20 17.9286 20H5.99998Z" fill="currentColor"/>
  <path fill-rule="evenodd" clip-rule="evenodd" d="M4.07143 2C3.47969 2 3 2.44772 3 3V18C3 18.5523 3.4797 19 4.07143 19H16.9286C17.5203 19 18 18.5523 18 18V3C18 2.44772 17.5203 2 16.9286 2H4.07143ZM6.5 14C6.22386 14 6 14.2239 6 14.5C6 14.7761 6.22386 15 6.5 15H11.5C11.7761 15 12 14.7761 12 14.5C12 14.2239 11.7761 14 11.5 14H6.5ZM6 10.5C6 10.2239 6.22386 10 6.5 10H14.5C14.7761 10 15 10.2239 15 10.5C15 10.7761 14.7761 11 14.5 11H6.5C6.22386 11 6 10.7761 6 10.5ZM6.5 6C6.22386 6 6 6.22386 6 6.5C6 6.77614 6.22386 7 6.5 7H14.5C14.7761 7 15 6.77614 15 6.5C15 6.22386 14.7761 6 14.5 6H6.5Z" fill="currentColor"/>
</svg>
