<svg width="24" height="24" viewBox="0 0 24 24" fill="none" xmlns="http://www.w3.org/2000/svg" data-karrot-ui-icon="true">
  <path fill-rule="evenodd" clip-rule="evenodd" d="M2.0002 3.19995C1.55837 3.19995 1.2002 3.55812 1.2002 3.99995V9.05996C1.2002 9.42886 1.45244 9.74993 1.81086 9.83723C2.51419 10.0086 3.2002 10.829 3.2002 12C3.2002 13.1709 2.51419 13.9913 1.81086 14.1627C1.45244 14.25 1.2002 14.571 1.2002 14.9399V20C1.2002 20.4418 1.55837 20.7999 2.0002 20.7999H22.0002C22.442 20.7999 22.8002 20.4418 22.8002 20V14.9399C22.8002 14.571 22.5479 14.25 22.1895 14.1627C21.4862 13.9913 20.8002 13.1709 20.8002 12C20.8002 10.829 21.4862 10.0086 22.1895 9.83723C22.5479 9.74993 22.8002 9.42886 22.8002 9.05996V3.99995C22.8002 3.55812 22.442 3.19995 22.0002 3.19995H2.0002ZM2.8002 8.50341V4.79995H15.0002V6.99995H16.6002V4.79995H21.2002V8.50341C19.9712 9.10367 19.2002 10.5029 19.2002 12C19.2002 13.497 19.9712 14.8962 21.2002 15.4965V19.2H16.6002V17H15.0002V19.2H2.8002V15.4965C4.02918 14.8962 4.8002 13.497 4.8002 12C4.8002 10.5029 4.02918 9.10367 2.8002 8.50341ZM16.6002 9.99995H15.0002V14H16.6002V9.99995Z" fill="currentColor"/>
</svg>
