<svg width="24" height="24" viewBox="0 0 24 24" fill="none" xmlns="http://www.w3.org/2000/svg" data-karrot-ui-icon="true">
  <path d="M17.8268 22.4989C17.5732 22.6401 17.2631 22.6329 17.0163 22.4801L16.8887 22.4013C16.8068 22.3507 16.689 22.2782 16.5458 22.1902C16.2592 22.0142 15.8712 21.777 15.4651 21.5315C14.7983 21.1285 14.1333 20.7346 13.7655 20.5337C13.0358 20.6828 12.2775 20.7613 11.5 20.7613C5.89007 20.7613 1.20005 16.6361 1.20005 11.3806C1.20005 6.1252 5.89007 2 11.5 2C17.11 2 21.8 6.1252 21.8 11.3806C21.8 14.2342 20.404 16.7699 18.2375 18.4773V21.8C18.2375 22.0902 18.0804 22.3577 17.8268 22.4989Z" fill="currentColor"/>
</svg>
