<svg width="24" height="24" viewBox="0 0 24 24" fill="none" xmlns="http://www.w3.org/2000/svg" data-karrot-ui-icon="true">
  <path d="M14.8607 7.04413C15.6591 7.77886 16.133 8.8677 15.967 10.1864C15.7976 11.5316 14.8042 12.2141 14.0805 12.7113C14.0265 12.7484 13.9739 12.7845 13.9234 12.8198C13.1353 13.3692 12.6528 13.7849 12.6528 14.6667C12.6528 15.0349 12.3543 15.3333 11.9861 15.3333C11.6179 15.3333 11.3194 15.0349 11.3194 14.6667C11.3194 13.0534 12.3583 12.2855 13.1608 11.726L13.2074 11.6935C14.0424 11.1116 14.5512 10.757 14.6441 10.0198C14.7546 9.1419 14.4485 8.47674 13.9579 8.02525C13.4513 7.55908 12.7279 7.30548 12.0144 7.33575C10.5413 7.39825 9.33333 8.52236 9.33333 9.86847C9.33333 10.2367 9.03486 10.5351 8.66667 10.5351C8.29848 10.5351 8 10.2367 8 9.86847C8 7.67459 9.91228 6.0904 11.9578 6.00362C13.0036 5.95925 14.0783 6.32408 14.8607 7.04413Z" fill="currentColor"/>
  <path d="M12.0003 18.9335C12.5894 18.9335 13.0669 18.4559 13.0669 17.8668C13.0669 17.2777 12.5894 16.8001 12.0003 16.8001C11.4112 16.8001 10.9336 17.2777 10.9336 17.8668C10.9336 18.4559 11.4112 18.9335 12.0003 18.9335Z" fill="currentColor"/>
  <path fill-rule="evenodd" clip-rule="evenodd" d="M2 12C2 6.47715 6.47715 2 12 2C17.5228 2 22 6.47715 22 12C22 17.5228 17.5228 22 12 22C6.47715 22 2 17.5228 2 12ZM12 3.33333C7.21353 3.33333 3.33333 7.21353 3.33333 12C3.33333 16.7865 7.21353 20.6667 12 20.6667C16.7865 20.6667 20.6667 16.7865 20.6667 12C20.6667 7.21353 16.7865 3.33333 12 3.33333Z" fill="currentColor"/>
</svg>
