<svg width="24" height="24" viewBox="0 0 24 24" fill="none" xmlns="http://www.w3.org/2000/svg" data-karrot-ui-icon="true">
  <path fill-rule="evenodd" clip-rule="evenodd" d="M11.9999 1.3999C6.14568 1.3999 1.3999 6.14568 1.3999 11.9999C1.3999 17.8541 6.14568 22.5999 11.9999 22.5999C17.8541 22.5999 22.5999 17.8541 22.5999 11.9999C22.5999 6.14568 17.8541 1.3999 11.9999 1.3999ZM2.5999 11.9999C2.5999 6.80843 6.80843 2.5999 11.9999 2.5999C17.1914 2.5999 21.3999 6.80843 21.3999 11.9999C21.3999 17.1914 17.1914 21.3999 11.9999 21.3999C6.80843 21.3999 2.5999 17.1914 2.5999 11.9999ZM16.975 9.06661C17.1774 8.80424 17.1288 8.42746 16.8664 8.22506C16.604 8.02266 16.2272 8.07127 16.0248 8.33364L11.0478 14.7854L7.93027 11.5762C7.69938 11.3385 7.31952 11.333 7.08183 11.5639C6.84415 11.7948 6.83864 12.1746 7.06954 12.4123L10.6695 16.1182C10.7908 16.243 10.9603 16.3091 11.134 16.2992C11.3078 16.2893 11.4687 16.2044 11.575 16.0666L16.975 9.06661Z" fill="currentColor"/>
</svg>
