<svg width="24" height="24" viewBox="0 0 24 24" fill="none" xmlns="http://www.w3.org/2000/svg" data-karrot-ui-icon="true">
  <path fill-rule="evenodd" clip-rule="evenodd" d="M11.9999 1.3999C12.3313 1.3999 12.5999 1.66853 12.5999 1.9999V2.91937C14.665 3.05378 16.5423 3.87707 18.0042 5.16171C18.0249 5.1314 18.0487 5.10255 18.0756 5.07564L18.5756 4.57564C18.81 4.34132 19.1899 4.34132 19.4242 4.57564C19.6585 4.80995 19.6585 5.18985 19.4242 5.42417L18.9242 5.92417C18.8973 5.95108 18.8684 5.9749 18.8381 5.99563C20.1227 7.45753 20.946 9.33479 21.0804 11.3999H21.9999C22.3313 11.3999 22.5999 11.6685 22.5999 11.9999C22.5999 12.3313 22.3313 12.5999 21.9999 12.5999H21.0804C20.946 14.665 20.1227 16.5423 18.8381 18.0042C18.8684 18.0249 18.8973 18.0487 18.9242 18.0756L19.4242 18.5756C19.6585 18.81 19.6585 19.1899 19.4242 19.4242C19.1899 19.6585 18.81 19.6585 18.5756 19.4242L18.0756 18.9242C18.0487 18.8973 18.0249 18.8684 18.0042 18.8381C16.5423 20.1227 14.665 20.946 12.5999 21.0804V21.9999C12.5999 22.3313 12.3313 22.5999 11.9999 22.5999C11.6685 22.5999 11.3999 22.3313 11.3999 21.9999V21.0804C9.33479 20.946 7.45753 20.1227 5.99563 18.8381C5.9749 18.8684 5.95108 18.8973 5.92417 18.9242L5.42417 19.4242C5.18985 19.6585 4.80995 19.6585 4.57564 19.4242C4.34132 19.1899 4.34132 18.81 4.57564 18.5756L5.07564 18.0756C5.10255 18.0487 5.1314 18.0249 5.16171 18.0042C3.87707 16.5423 3.05378 14.665 2.91937 12.5999H1.9999C1.66853 12.5999 1.3999 12.3313 1.3999 11.9999C1.3999 11.6685 1.66853 11.3999 1.9999 11.3999H2.91937C3.05378 9.3348 3.87707 7.45754 5.16171 5.99564C5.13139 5.97491 5.10255 5.95108 5.07564 5.92417L4.57564 5.42417C4.34132 5.18985 4.34132 4.80995 4.57564 4.57564C4.80995 4.34132 5.18985 4.34132 5.42417 4.57564L5.92417 5.07564C5.95108 5.10255 5.97491 5.13139 5.99564 5.16171C7.45754 3.87707 9.3348 3.05378 11.3999 2.91937V1.9999C11.3999 1.66853 11.6685 1.3999 11.9999 1.3999ZM11.9999 4.0999C7.63685 4.0999 4.0999 7.63685 4.0999 11.9999C4.0999 16.363 7.63685 19.8999 11.9999 19.8999C16.363 19.8999 19.8999 16.363 19.8999 11.9999C19.8999 7.63685 16.363 4.0999 11.9999 4.0999ZM11.9999 9.5999C10.6744 9.5999 9.5999 10.6744 9.5999 11.9999C9.5999 13.3254 10.6744 14.3999 11.9999 14.3999C13.3254 14.3999 14.3999 13.3254 14.3999 11.9999C14.3999 10.6744 13.3254 9.5999 11.9999 9.5999ZM8.3999 11.9999C8.3999 10.0117 10.0117 8.3999 11.9999 8.3999C13.9881 8.3999 15.5999 10.0117 15.5999 11.9999C15.5999 13.9881 13.9881 15.5999 11.9999 15.5999C10.0117 15.5999 8.3999 13.9881 8.3999 11.9999Z" fill="currentColor"/>
</svg>
