<svg width="24" height="24" viewBox="0 0 24 24" fill="none" xmlns="http://www.w3.org/2000/svg" data-karrot-ui-icon="true">
  <path fill-rule="evenodd" clip-rule="evenodd" d="M8.80001 2.19971C8.45566 2.19971 8.14995 2.42005 8.04106 2.74672L7.2234 5.19971H2.8C2.35817 5.19971 2 5.55788 2 5.99971C2 6.44153 2.35817 6.79971 2.8 6.79971H4V17.9997C4 20.0984 5.70132 21.7997 7.8 21.7997H15.8C17.8987 21.7997 19.6 20.0984 19.6 17.9997V6.79971H20.8C21.2418 6.79971 21.6 6.44153 21.6 5.99971C21.6 5.55788 21.2418 5.19971 20.8 5.19971H16.3766L15.559 2.74672C15.4501 2.42005 15.1444 2.19971 14.8 2.19971H8.80001ZM8.3 10.1997C8.74183 10.1997 9.1 10.5579 9.1 10.9997V15.9997C9.1 16.4415 8.74183 16.7997 8.3 16.7997C7.85817 16.7997 7.5 16.4415 7.5 15.9997V10.9997C7.5 10.5579 7.85817 10.1997 8.3 10.1997ZM11.8 10.1997C12.2418 10.1997 12.6 10.5579 12.6 10.9997V15.9997C12.6 16.4415 12.2418 16.7997 11.8 16.7997C11.3582 16.7997 11 16.4415 11 15.9997V10.9997C11 10.5579 11.3582 10.1997 11.8 10.1997ZM16.1 10.9997C16.1 10.5579 15.7418 10.1997 15.3 10.1997C14.8582 10.1997 14.5 10.5579 14.5 10.9997V15.9997C14.5 16.4415 14.8582 16.7997 15.3 16.7997C15.7418 16.7997 16.1 16.4415 16.1 15.9997V10.9997Z" fill="currentColor"/>
</svg>
