<svg width="24" height="24" viewBox="0 0 24 24" fill="none" xmlns="http://www.w3.org/2000/svg" data-karrot-ui-icon="true">
  <path fill-rule="evenodd" clip-rule="evenodd" d="M9.4999 5.3999C9.83127 5.3999 10.0999 5.66853 10.0999 5.9999V6.8999H13.8999V5.9999C13.8999 5.66853 14.1685 5.3999 14.4999 5.3999C14.8313 5.3999 15.0999 5.66853 15.0999 5.9999V6.8999H16.4999C16.8313 6.8999 17.0999 7.16853 17.0999 7.4999V16.4999C17.0999 16.8313 16.8313 17.0999 16.4999 17.0999H7.4999C7.16853 17.0999 6.8999 16.8313 6.8999 16.4999V7.4999C6.8999 7.16853 7.16853 6.8999 7.4999 6.8999H8.8999V5.9999C8.8999 5.66853 9.16853 5.3999 9.4999 5.3999ZM8.0999 8.0999H15.8999V9.8999H8.0999V8.0999ZM8.0999 15.8999V11.0999H15.8999V15.8999H8.0999Z" fill="currentColor"/>
  <path fill-rule="evenodd" clip-rule="evenodd" d="M11.9999 1.8999C6.42183 1.8999 1.8999 6.42183 1.8999 11.9999C1.8999 17.578 6.42183 22.0999 11.9999 22.0999C17.578 22.0999 22.0999 17.578 22.0999 11.9999C22.0999 6.42183 17.578 1.8999 11.9999 1.8999ZM3.0999 11.9999C3.0999 7.08457 7.08457 3.0999 11.9999 3.0999C16.9152 3.0999 20.8999 7.08457 20.8999 11.9999C20.8999 16.9152 16.9152 20.8999 11.9999 20.8999C7.08457 20.8999 3.0999 16.9152 3.0999 11.9999Z" fill="currentColor"/>
</svg>
