<svg width="24" height="24" viewBox="0 0 24 24" fill="none" xmlns="http://www.w3.org/2000/svg" data-karrot-ui-icon="true">
  <path d="M3 2C2.44772 2 2 2.44772 2 3V21C2 21.5523 2.44772 22 3 22H14C14.5523 22 15 21.5523 15 21C15 20.4477 14.5523 20 14 20H4V4H20V12C20 12.5523 20.4477 13 21 13C21.5523 13 22 12.5523 22 12V3C22 2.44772 21.5523 2 21 2H3Z" fill="currentColor"/>
  <path d="M7 7C6.44772 7 6 7.44772 6 8C6 8.55228 6.44772 9 7 9H17C17.5523 9 18 8.55228 18 8C18 7.44772 17.5523 7 17 7H7Z" fill="currentColor"/>
  <path d="M7 11C6.44772 11 6 11.4477 6 12C6 12.5523 6.44772 13 7 13H15C15.5523 13 16 12.5523 16 12C16 11.4477 15.5523 11 15 11H7Z" fill="currentColor"/>
  <path d="M6 16C6 15.4477 6.44772 15 7 15H12C12.5523 15 13 15.4477 13 16C13 16.5523 12.5523 17 12 17H7C6.44772 17 6 16.5523 6 16Z" fill="currentColor"/>
  <path d="M19.7071 15.7071L18.4142 17H22C22.5523 17 23 17.4477 23 18C23 18.5523 22.5523 19 22 19H18.4142L19.7071 20.2929C20.0976 20.6834 20.0976 21.3166 19.7071 21.7071C19.3166 22.0976 18.6834 22.0976 18.2929 21.7071L15.2929 18.7071C14.9024 18.3166 14.9024 17.6834 15.2929 17.2929L18.2929 14.2929C18.6834 13.9024 19.3166 13.9024 19.7071 14.2929C20.0976 14.6834 20.0976 15.3166 19.7071 15.7071Z" fill="currentColor"/>
</svg>
