<svg width="24" height="24" viewBox="0 0 24 24" fill="none" xmlns="http://www.w3.org/2000/svg" data-karrot-ui-icon="true">
  <path d="M1 4.99995C1 3.45355 2.2536 2.19995 3.8 2.19995L20.2 2.19995C21.7464 2.19995 23 3.45355 23 4.99995V7.19995H1V4.99995Z" fill="currentColor"/>
  <path fill-rule="evenodd" clip-rule="evenodd" d="M1 8.79995H23V19C23 20.5463 21.7464 21.7999 20.2 21.7999H3.8C2.2536 21.7999 1 20.5463 1 19V8.79995ZM4.99995 16.2C4.55812 16.2 4.19995 16.5581 4.19995 17C4.19995 17.4418 4.55812 17.8 4.99995 17.8H9.99995C10.4418 17.8 10.8 17.4418 10.8 17C10.8 16.5581 10.4418 16.2 9.99995 16.2H4.99995Z" fill="currentColor"/>
</svg>
