<svg width="24" height="24" viewBox="0 0 24 24" fill="none" xmlns="http://www.w3.org/2000/svg" data-karrot-ui-icon="true">
  <path d="M6.06091 10.6315C6.06091 10.2827 6.33363 9.99993 6.67005 9.99993H15.2995C15.6359 9.99993 15.9086 10.2827 15.9086 10.6315C15.9086 10.9803 15.6359 11.2631 15.2995 11.2631H6.67005C6.33363 11.2631 6.06091 10.9803 6.06091 10.6315Z" fill="currentColor"/>
  <path fill-rule="evenodd" clip-rule="evenodd" d="M6.71705 6.21829C6.83276 6.07966 7.00085 6 7.17766 6H15.2995C15.5018 6 15.6909 6.10416 15.8042 6.27798L18.2421 10.0189L21.6308 11.5247C21.8548 11.6242 22 11.8526 22 12.1052V15.5263C22 15.8751 21.7273 16.1579 21.3909 16.1579H19.6487C19.3984 17.2154 18.478 18 17.3808 18C16.2836 18 15.3632 17.2154 15.113 16.1579H8.48115C8.23089 17.2154 7.31046 18 6.2133 18C5.11613 18 4.1957 17.2154 3.94544 16.1579H2.60914C2.27272 16.1579 2 15.8751 2 15.5263V12.1052C2 11.9534 2.05273 11.8067 2.14853 11.6919L6.71705 6.21829ZM15.1403 14.8947C15.4251 13.8908 16.3204 13.1579 17.3808 13.1579C18.4412 13.1579 19.3365 13.8908 19.6213 14.8947H20.7817V12.5217L17.5976 11.1068C17.4902 11.0591 17.3983 10.9803 17.3328 10.8799L14.9759 7.26315H7.45608L3.21827 12.3406V14.8947H3.97284C4.25758 13.8908 5.15289 13.1579 6.2133 13.1579C7.2737 13.1579 8.16901 13.8908 8.45376 14.8947H15.1403ZM6.2133 16.7368C6.83006 16.7368 7.33005 16.2184 7.33005 15.579C7.33005 14.9395 6.83006 14.4211 6.2133 14.4211C5.59653 14.4211 5.09655 14.9395 5.09655 15.579C5.09655 16.2184 5.59653 16.7368 6.2133 16.7368ZM18.4976 15.579C18.4976 16.2184 17.9976 16.7368 17.3808 16.7368C16.764 16.7368 16.2641 16.2184 16.2641 15.579C16.2641 14.9395 16.764 14.4211 17.3808 14.4211C17.9976 14.4211 18.4976 14.9395 18.4976 15.579Z" fill="currentColor"/>
</svg>
