<svg width="24" height="24" viewBox="0 0 24 24" fill="none" xmlns="http://www.w3.org/2000/svg" data-karrot-ui-icon="true">
  <path fill-rule="evenodd" clip-rule="evenodd" d="M12 2C17.436 2 22 5.91162 22 10.9014C22 14.0928 20.1237 16.8587 17.3603 18.4222L17.8521 21.2154C17.8898 21.4295 17.8208 21.6485 17.6671 21.8022L17.6652 21.8041L17.6598 21.8094C17.6552 21.8139 17.6477 21.8211 17.6382 21.8296C17.6186 21.847 17.5894 21.871 17.551 21.8954C17.4667 21.9488 17.3771 21.9795 17.2909 21.9924C17.1577 22.0125 17.0503 21.9864 17.0261 21.9805L17.0241 21.98C16.9629 21.9652 16.9013 21.9415 16.8654 21.9276C16.7716 21.8914 16.5989 21.8203 16.2766 21.685C15.636 21.4164 14.3702 20.88 11.8626 19.8175C6.4873 19.7523 2 15.8646 2 10.917C2 5.92871 6.56225 2 12 2ZM7.86654 8.6667C7.86654 8.22487 8.22471 7.8667 8.66654 7.8667H15.3332C15.775 7.8667 16.1332 8.22487 16.1332 8.6667C16.1332 9.10853 15.775 9.4667 15.3332 9.4667H8.66654C8.22471 9.4667 7.86654 9.10853 7.86654 8.6667ZM8.66654 11.8667C8.22471 11.8667 7.86654 12.2249 7.86654 12.6667C7.86654 13.1085 8.22471 13.4667 8.66654 13.4667H15.3332C15.775 13.4667 16.1332 13.1085 16.1332 12.6667C16.1332 12.2249 15.775 11.8667 15.3332 11.8667H8.66654Z" fill="currentColor"/>
</svg>
