<svg width="24" height="24" viewBox="0 0 24 24" fill="none" xmlns="http://www.w3.org/2000/svg" data-karrot-ui-icon="true">
  <path d="M2.3999 1.9999C2.3999 1.66853 2.66853 1.3999 2.9999 1.3999H18.6C18.9314 1.3999 19.2 1.66853 19.2 1.9999V12.5C19.2 12.8314 18.9314 13.1 18.6 13.1C18.2686 13.1 18 12.8314 18 12.5V2.5999H3.5999V19H10.9999C11.3313 19 11.5999 19.2686 11.5999 19.6C11.5999 19.9314 11.3313 20.2 10.9999 20.2H2.9999C2.66853 20.2 2.3999 19.9314 2.3999 19.6V1.9999Z" fill="currentColor"/>
  <path d="M5.5 6.4C5.5 6.06863 5.76863 5.8 6.1 5.8H15.4C15.7314 5.8 16 6.06863 16 6.4C16 6.73137 15.7314 7 15.4 7H6.1C5.76863 7 5.5 6.73137 5.5 6.4Z" fill="currentColor"/>
  <path d="M5.5 10.6C5.5 10.2686 5.76863 10 6.1 10H15.4C15.7314 10 16 10.2686 16 10.6C16 10.9314 15.7314 11.2 15.4 11.2H6.1C5.76863 11.2 5.5 10.9314 5.5 10.6Z" fill="currentColor"/>
  <path d="M6.1 14.5C5.76863 14.5 5.5 14.7686 5.5 15.1C5.5 15.4314 5.76863 15.7 6.1 15.7H9.5C9.83137 15.7 10.1 15.4314 10.1 15.1C10.1 14.7686 9.83137 14.5 9.5 14.5H6.1Z" fill="currentColor"/>
  <path fill-rule="evenodd" clip-rule="evenodd" d="M19.7467 19.8982C20.0479 19.371 20.22 18.7606 20.22 18.11C20.22 16.1163 18.6037 14.5 16.61 14.5C14.6163 14.5 13 16.1163 13 18.11C13 20.1037 14.6163 21.72 16.61 21.72C17.5182 21.72 18.348 21.3846 18.9825 20.831L20.5757 22.4242C20.81 22.6585 21.1899 22.6585 21.4242 22.4242C21.6585 22.1899 21.6585 21.81 21.4242 21.5757L19.7467 19.8982ZM16.61 20.52C17.941 20.52 19.02 19.441 19.02 18.11C19.02 16.779 17.941 15.7 16.61 15.7C15.279 15.7 14.2 16.779 14.2 18.11C14.2 19.441 15.279 20.52 16.61 20.52Z" fill="currentColor"/>
</svg>
