<svg width="24" height="24" viewBox="0 0 24 24" fill="none" xmlns="http://www.w3.org/2000/svg" data-karrot-ui-icon="true">
  <path fill-rule="evenodd" clip-rule="evenodd" d="M17.024 7.10594C15.9016 5.9835 14.0817 5.9835 12.9593 7.10594C11.8369 8.22837 11.8369 10.0482 12.9593 11.1706C14.0817 12.2931 15.9016 12.2931 17.024 11.1706C18.1464 10.0482 18.1464 8.22837 17.024 7.10594ZM14.0907 8.23731C14.5883 7.73971 15.395 7.73971 15.8926 8.23731C16.3902 8.73491 16.3902 9.54167 15.8926 10.0393C15.395 10.5369 14.5883 10.5369 14.0907 10.0393C13.5931 9.54167 13.5931 8.73491 14.0907 8.23731Z" fill="currentColor"/>
  <path fill-rule="evenodd" clip-rule="evenodd" d="M18.558 2.63998C17.8626 1.94452 16.8532 1.66494 15.899 1.90348L11.6684 2.96115C11.176 3.08423 10.7264 3.33881 10.3676 3.69765L2.64017 11.4251C1.5467 12.5185 1.5467 14.2914 2.64017 15.3849L8.61174 21.3564C9.70521 22.4499 11.4781 22.4499 12.5715 21.3564L20.2989 13.629C20.6578 13.2702 20.9124 12.8206 21.0354 12.3282L22.0931 8.09756C22.3317 7.14339 22.0521 6.13402 21.3566 5.43856L18.558 2.63998ZM16.2871 3.45571C16.696 3.35348 17.1286 3.4733 17.4267 3.77136L20.2252 6.56993C20.5233 6.86798 20.6431 7.30057 20.5409 7.7095L19.4832 11.9402C19.4305 12.1512 19.3214 12.3439 19.1676 12.4977L11.4402 20.2251C10.9715 20.6937 10.2117 20.6937 9.74311 20.2251L3.77154 14.2535C3.30291 13.7849 3.30291 13.0251 3.77154 12.5564L11.4989 4.82902C11.6527 4.67523 11.8454 4.56613 12.0564 4.51338L16.2871 3.45571Z" fill="currentColor"/>
</svg>
