<svg width="24" height="24" viewBox="0 0 24 24" fill="none" xmlns="http://www.w3.org/2000/svg" data-karrot-ui-icon="true">
  <path fill-rule="evenodd" clip-rule="evenodd" d="M12.0612 20.6621C17.9154 20.6621 22.6612 16.3528 22.6612 11.0371C22.6612 5.72137 17.9154 1.41211 12.0612 1.41211C6.20696 1.41211 1.46118 5.72137 1.46118 11.0371C1.46118 14.0871 2.62363 16.7486 5.06128 18.5121L5.08852 21.9872C5.08852 22.455 5.60015 22.7429 6 22.5L9.77682 20.438C10.5126 20.5848 11.2769 20.6621 12.0612 20.6621ZM8.19995 9.49995C8.19995 9.05812 8.55812 8.69995 8.99995 8.69995H15C15.4418 8.69995 15.8 9.05812 15.8 9.49995C15.8 9.94178 15.4418 10.3 15 10.3H8.99995C8.55812 10.3 8.19995 9.94178 8.19995 9.49995ZM8.19995 13.5C8.19995 13.0581 8.55812 12.7 8.99995 12.7H15C15.4418 12.7 15.8 13.0581 15.8 13.5C15.8 13.9418 15.4418 14.3 15 14.3H8.99995C8.55812 14.3 8.19995 13.9418 8.19995 13.5Z" fill="currentColor"/>
</svg>
