<svg width="24" height="24" viewBox="0 0 24 24" fill="none" xmlns="http://www.w3.org/2000/svg" data-karrot-ui-icon="true">
  <path fill-rule="evenodd" clip-rule="evenodd" d="M12.7627 1.51271C12.7627 1.09148 12.4212 0.75 12 0.75C11.5788 0.75 11.2373 1.09148 11.2373 1.51271V2.68746C6.68546 3.05521 3.05521 6.68546 2.68746 11.2373H1.51271C1.09148 11.2373 0.75 11.5788 0.75 12C0.75 12.4212 1.09148 12.7627 1.51271 12.7627H2.68746C3.05521 17.3145 6.68546 20.9448 11.2373 21.3125V22.4873C11.2373 22.9085 11.5788 23.25 12 23.25C12.4212 23.25 12.7627 22.9085 12.7627 22.4873L12.7627 21.3125C17.3145 20.9448 20.9448 17.3145 21.3125 12.7627L22.4873 12.7627C22.9085 12.7627 23.25 12.4212 23.25 12C23.25 11.5788 22.9085 11.2373 22.4873 11.2373H21.3125C20.9448 6.68546 17.3145 3.05521 12.7627 2.68746V1.51271ZM4.1822 12C4.1822 7.68235 7.68235 4.1822 12 4.1822C16.3176 4.1822 19.8178 7.68235 19.8178 12C19.8178 14.0599 19.0211 15.9337 17.7191 17.3302C17.5068 15.6062 16.4857 14.134 15.0482 13.262C15.7945 12.5214 16.26 11.507 16.26 10.3772C16.26 8.06498 14.3289 6.23999 12 6.23999C9.67107 6.23999 7.73999 8.06498 7.73999 10.3772C7.73999 11.5055 8.20658 12.5212 8.95155 13.2617C7.51411 14.1328 6.49283 15.6033 6.28081 17.33C4.97883 15.9336 4.1822 14.0598 4.1822 12ZM7.75999 18.5692C8.9814 19.3592 10.4371 19.8178 12 19.8178C13.5628 19.8178 15.0186 19.3592 16.24 18.5692V18C16.24 16.2108 15.0259 14.6684 13.3086 14.1325C13.0096 14.0392 12.7985 13.7721 12.7768 13.4596C12.7551 13.1472 12.9273 12.8535 13.2105 12.7197C14.1314 12.285 14.74 11.3914 14.74 10.3772C14.74 8.95517 13.5411 7.75999 12 7.75999C10.4589 7.75999 9.25999 8.95517 9.25999 10.3772C9.25999 11.3915 9.87365 12.2893 10.7883 12.7192C11.0719 12.8525 11.2446 13.1463 11.2232 13.459C11.2018 13.7717 10.9906 14.0391 10.6914 14.1325C8.97361 14.6685 7.75999 16.2064 7.75999 18V18.5692Z" fill="currentColor"/>
</svg>
