<svg width="24" height="24" viewBox="0 0 24 24" fill="none" xmlns="http://www.w3.org/2000/svg" data-karrot-ui-icon="true">
  <path fill-rule="evenodd" clip-rule="evenodd" d="M7.8 12.0001C7.8 12.4951 7.395 12.9001 6.9 12.9001C6.405 12.9001 6 12.4951 6 12.0001C6 11.5051 6.405 11.1001 6.9 11.1001C7.395 11.1001 7.8 11.5051 7.8 12.0001ZM12.9001 12.0001C12.9001 12.4951 12.4951 12.9001 12.0001 12.9001C11.5051 12.9001 11.1001 12.4951 11.1001 12.0001C11.1001 11.5051 11.5051 11.1001 12.0001 11.1001C12.4951 11.1001 12.9001 11.5051 12.9001 12.0001ZM17.1 12.9001C17.595 12.9001 18 12.4951 18 12.0001C18 11.5051 17.595 11.1001 17.1 11.1001C16.605 11.1001 16.2 11.5051 16.2 12.0001C16.2 12.4951 16.605 12.9001 17.1 12.9001Z" fill="currentColor"/>
</svg>
