<svg width="24" height="24" viewBox="0 0 24 24" fill="none" xmlns="http://www.w3.org/2000/svg" data-karrot-ui-icon="true">
  <path fill-rule="evenodd" clip-rule="evenodd" d="M5.57564 5.57564C5.80995 5.34132 6.18985 5.34132 6.42417 5.57564L11.9999 11.1514L17.5756 5.57564C17.81 5.34132 18.1899 5.34132 18.4242 5.57564C18.6585 5.80995 18.6585 6.18985 18.4242 6.42417L12.8484 11.9999L18.4242 17.5756C18.6585 17.81 18.6585 18.1899 18.4242 18.4242C18.1899 18.6585 17.81 18.6585 17.5756 18.4242L11.9999 12.8484L6.42417 18.4242C6.18985 18.6585 5.80995 18.6585 5.57564 18.4242C5.34132 18.1899 5.34132 17.81 5.57564 17.5756L11.1514 11.9999L5.57564 6.42417C5.34132 6.18985 5.34132 5.80995 5.57564 5.57564Z" fill="currentColor"/>
</svg>
