<svg width="24" height="24" viewBox="0 0 24 24" fill="none" xmlns="http://www.w3.org/2000/svg" data-karrot-ui-icon="true">
  <path fill-rule="evenodd" clip-rule="evenodd" d="M9.50517 3.8999C9.50517 3.04285 10.2273 2.3999 11.0525 2.3999H12.9473C13.7725 2.3999 14.4946 3.04285 14.4946 3.8999V20.3999H15.1894V7.9499C15.1894 7.09285 15.9115 6.4499 16.7367 6.4499H18.6315C19.4567 6.4499 20.1789 7.09285 20.1789 7.9499V20.3999H20.9999C21.3313 20.3999 21.5999 20.6685 21.5999 20.9999C21.5999 21.3313 21.3313 21.5999 20.9999 21.5999H2.9999C2.66853 21.5999 2.3999 21.3313 2.3999 20.9999C2.3999 20.6685 2.66853 20.3999 2.9999 20.3999H3.82096V12.4499C3.82096 11.5928 4.54311 10.9499 5.36832 10.9499H7.26306C8.08828 10.9499 8.81043 11.5928 8.81043 12.4499V20.3999H9.50517V3.8999ZM10.7052 20.3999H13.2946V3.8999C13.2946 3.76285 13.1685 3.5999 12.9473 3.5999H11.0525C10.8313 3.5999 10.7052 3.76285 10.7052 3.8999V20.3999ZM7.61043 20.3999V12.4499C7.61043 12.3128 7.48428 12.1499 7.26306 12.1499H5.36832C5.14711 12.1499 5.02096 12.3128 5.02096 12.4499V20.3999H7.61043ZM16.3894 20.3999H18.9788V7.9499C18.9788 7.81285 18.8527 7.6499 18.6315 7.6499H16.7367C16.5155 7.6499 16.3894 7.81284 16.3894 7.9499V20.3999Z" fill="currentColor"/>
</svg>
