<svg width="24" height="24" viewBox="0 0 24 24" fill="none" xmlns="http://www.w3.org/2000/svg" data-karrot-ui-icon="true">
  <path fill-rule="evenodd" clip-rule="evenodd" d="M4.19995 19C4.19995 18.5581 4.55812 18.2 4.99995 18.2H19C19.4418 18.2 19.7999 18.5581 19.7999 19C19.7999 19.4418 19.4418 19.8 19 19.8H4.99995C4.55812 19.8 4.19995 19.4418 4.19995 19Z" fill="currentColor"/>
  <path fill-rule="evenodd" clip-rule="evenodd" d="M19.5049 4.37948C19.8476 4.65837 19.8993 5.16225 19.6204 5.50494L10.6685 16.5049C10.5229 16.6839 10.3071 16.7913 10.0765 16.7995C9.84587 16.8077 9.62297 16.7159 9.46498 16.5477L4.4169 11.1745C4.11438 10.8525 4.13017 10.3462 4.45219 10.0437C4.7742 9.74115 5.28048 9.75695 5.58301 10.079L10.0048 14.7856L18.3795 4.49501C18.6583 4.15232 19.1622 4.1006 19.5049 4.37948Z" fill="currentColor"/>
</svg>
