<svg width="24" height="24" viewBox="0 0 24 24" fill="none" xmlns="http://www.w3.org/2000/svg" data-karrot-ui-icon="true">
  <path fill-rule="evenodd" clip-rule="evenodd" d="M17.5359 9.35016C17.5359 10.938 16.2487 12.2252 14.6609 12.2252C13.0731 12.2252 11.7859 10.938 11.7859 9.35016C11.7859 7.76234 13.0731 6.47516 14.6609 6.47516C16.2487 6.47516 17.5359 7.76234 17.5359 9.35016ZM16.3359 9.35016C16.3359 10.2752 15.586 11.0252 14.6609 11.0252C13.7358 11.0252 12.9859 10.2752 12.9859 9.35016C12.9859 8.42508 13.7358 7.67516 14.6609 7.67516C15.586 7.67516 16.3359 8.42508 16.3359 9.35016Z" fill="currentColor"/>
  <path fill-rule="evenodd" clip-rule="evenodd" d="M18.3428 2.80162C17.697 2.15583 16.7597 1.89622 15.8737 2.11772L11.5475 3.19928C11.0947 3.31248 10.6807 3.54549 10.349 3.87385L2.94918 11.1987C1.72803 12.4075 1.72302 14.3789 2.938 15.5939L8.39045 21.0464C9.60253 22.2585 11.5682 22.2568 12.7782 21.0427L20.1315 13.6644C20.4631 13.3317 20.6983 12.9154 20.8123 12.4596L21.8929 8.13695C22.1144 7.25094 21.8548 6.31367 21.209 5.66788L18.3428 2.80162ZM16.1647 3.28189C16.6418 3.16262 17.1465 3.30241 17.4942 3.65014L20.3605 6.51641C20.7082 6.86414 20.848 7.36882 20.7288 7.84591L19.6481 12.1686C19.5867 12.414 19.4601 12.6382 19.2815 12.8173L11.9283 20.1956C11.1866 20.9397 9.98187 20.9407 9.23898 20.1978L3.78653 14.7454C3.04186 14.0007 3.04493 12.7924 3.79338 12.0516L11.1932 4.72668C11.3718 4.54987 11.5947 4.42441 11.8385 4.36345L16.1647 3.28189Z" fill="currentColor"/>
</svg>
