<svg width="24" height="24" viewBox="0 0 24 24" fill="none" xmlns="http://www.w3.org/2000/svg" data-karrot-ui-icon="true">
  <path d="M6 6.8C6 6.35817 6.35817 6 6.8 6H14.6C15.0418 6 15.4 6.35817 15.4 6.8C15.4 7.24183 15.0418 7.6 14.6 7.6H6.8C6.35817 7.6 6 7.24183 6 6.8Z" fill="currentColor"/>
  <path d="M6 10.8C6 10.3582 6.35817 10 6.8 10H14.6C15.0418 10 15.4 10.3582 15.4 10.8C15.4 11.2418 15.0418 11.6 14.6 11.6H6.8C6.35817 11.6 6 11.2418 6 10.8Z" fill="currentColor"/>
  <path d="M6.8 14C6.35817 14 6 14.3582 6 14.8C6 15.2418 6.35817 15.6 6.8 15.6H11.8C12.2418 15.6 12.6 15.2418 12.6 14.8C12.6 14.3582 12.2418 14 11.8 14H6.8Z" fill="currentColor"/>
  <path fill-rule="evenodd" clip-rule="evenodd" d="M3 3.8C3 2.80589 3.80589 2 4.8 2H16.8C17.7941 2 18.6 2.80589 18.6 3.8V17.8C18.6 18.7941 17.7941 19.6 16.8 19.6H4.8C3.80589 19.6 3 18.7941 3 17.8V3.8ZM4.8 3.6C4.68954 3.6 4.6 3.68954 4.6 3.8V17.8C4.6 17.9105 4.68954 18 4.8 18H16.8C16.9105 18 17 17.9105 17 17.8V3.8C17 3.68954 16.9105 3.6 16.8 3.6H4.8Z" fill="currentColor"/>
  <path d="M20.9999 6.1999C20.9999 5.75807 20.6417 5.3999 20.1999 5.3999C19.7581 5.3999 19.3999 5.75807 19.3999 6.1999V18.6999C19.3999 19.6388 18.6388 20.3999 17.6999 20.3999H6.6999C6.25807 20.3999 5.8999 20.7581 5.8999 21.1999C5.8999 21.6417 6.25807 21.9999 6.6999 21.9999H17.6999C19.5224 21.9999 20.9999 20.5224 20.9999 18.6999V6.1999Z" fill="currentColor"/>
</svg>
