<svg width="24" height="24" viewBox="0 0 24 24" fill="none" xmlns="http://www.w3.org/2000/svg" data-karrot-ui-icon="true">
  <path fill-rule="evenodd" clip-rule="evenodd" d="M5.94995 17.73V14.2321C3.91759 13.9032 2.44995 11.9272 2.44995 9.68008C2.44995 7.21733 4.21283 5.08008 6.54995 5.08008C8.28877 5.08008 9.72288 6.27908 10.329 7.89168C10.3701 8.00109 10.4026 8.11114 10.4282 8.22067L13.5007 5.48217C13.7282 5.27938 14.0716 5.27938 14.2991 5.48217L21.1991 11.6321C21.4465 11.8526 21.4683 12.2318 21.2478 12.4792C21.0273 12.7266 20.6481 12.7484 20.4007 12.5279L19.0499 11.3239V17.73H20.9499C21.2812 17.73 21.5499 17.9986 21.5499 18.33C21.5499 18.6614 21.2812 18.93 20.9499 18.93H3.94985C3.61848 18.93 3.34985 18.6614 3.34985 18.33C3.34985 17.9986 3.61848 17.73 3.94985 17.73H5.94995ZM3.64995 9.68008C3.64995 7.72455 5.02108 6.28008 6.54995 6.28008C7.69692 6.28008 8.74074 7.07679 9.20568 8.31386C9.28629 8.52832 9.31592 8.78082 9.31592 9.07998C9.31592 9.12148 9.32013 9.16199 9.32815 9.20111L6.60069 11.6321C6.35332 11.8526 6.33151 12.2318 6.552 12.4792C6.77248 12.7266 7.15175 12.7484 7.39913 12.5279L8.6499 11.4131V17.73H7.14995V13.6801C7.14995 13.3487 6.88132 13.0801 6.54995 13.0801C5.02108 13.0801 3.64995 11.6356 3.64995 9.68008ZM17.8499 10.2544L13.8999 6.73381L9.8499 10.3435V17.73H11.8499V13.88C11.8499 13.5487 12.1185 13.28 12.4499 13.28H15.4499C15.7812 13.28 16.0499 13.5487 16.0499 13.88V17.73H17.8499V10.2544ZM14.8499 17.73H13.0499V14.48H14.8499V17.73Z" fill="currentColor"/>
</svg>
