<svg width="24" height="24" viewBox="0 0 24 24" fill="none" xmlns="http://www.w3.org/2000/svg" data-karrot-ui-icon="true">
  <path d="M9.33333 11.3332C9.33333 10.965 9.03486 10.6665 8.66667 10.6665C8.29848 10.6665 8 10.965 8 11.3332V15.9998C8 16.368 8.29848 16.6665 8.66667 16.6665C9.03486 16.6665 9.33333 16.368 9.33333 15.9998V11.3332Z" fill="currentColor"/>
  <path d="M12 10.6665C12.3682 10.6665 12.6667 10.965 12.6667 11.3332V15.9998C12.6667 16.368 12.3682 16.6665 12 16.6665C11.6318 16.6665 11.3333 16.368 11.3333 15.9998V11.3332C11.3333 10.965 11.6318 10.6665 12 10.6665Z" fill="currentColor"/>
  <path d="M16 11.3332C16 10.965 15.7015 10.6665 15.3333 10.6665C14.9651 10.6665 14.6667 10.965 14.6667 11.3332V15.9998C14.6667 16.368 14.9651 16.6665 15.3333 16.6665C15.7015 16.6665 16 16.368 16 15.9998V11.3332Z" fill="currentColor"/>
  <path fill-rule="evenodd" clip-rule="evenodd" d="M9 2.6665C8.72211 2.6665 8.47336 2.83889 8.37578 3.09909L7.538 5.33317H2.66667C2.29848 5.33317 2 5.63165 2 5.99984C2 6.36803 2.29848 6.6665 2.66667 6.6665H4V19.9998C4 21.1044 4.89543 21.9998 6 21.9998H18C19.1046 21.9998 20 21.1044 20 19.9998V6.6665H21.3333C21.7015 6.6665 22 6.36803 22 5.99984C22 5.63165 21.7015 5.33317 21.3333 5.33317H16.462L15.6242 3.09909C15.5266 2.83889 15.2779 2.6665 15 2.6665H9ZM15.038 5.33317L14.538 3.99984H9.462L8.962 5.33317H15.038ZM5.33333 6.6665V19.9998C5.33333 20.368 5.63181 20.6665 6 20.6665H18C18.3682 20.6665 18.6667 20.368 18.6667 19.9998V6.6665H5.33333Z" fill="currentColor"/>
</svg>
