<svg width="24" height="24" viewBox="0 0 24 24" fill="none" xmlns="http://www.w3.org/2000/svg" data-karrot-ui-icon="true">
  <path fill-rule="evenodd" clip-rule="evenodd" d="M11.4577 2.2062C11.767 1.93127 12.2331 1.93127 12.5424 2.2062L21.7261 10.3695C21.9004 10.5244 22.0001 10.7465 22.0001 10.9796V21.1838C22.0001 21.6346 21.6346 22.0001 21.1838 22.0001H15.0613C14.6104 22.0001 14.245 21.6346 14.245 21.1838V16.0817C14.245 14.7978 13.2839 13.8368 12.0001 13.8368C10.7162 13.8368 9.75514 14.7978 9.75514 16.0817V21.1837C9.75514 21.6346 9.38966 22.0001 8.93881 22.0001H2.81633C2.36548 22.0001 2 21.6346 2 21.1838V10.9796C2 10.7465 2.09971 10.5244 2.27399 10.3695L11.4577 2.2062ZM8.12248 20.367V16.0817C8.12248 13.8962 9.8145 12.2041 12.0001 12.2041C14.1856 12.2041 15.8776 13.8962 15.8776 16.0817V20.3674H20.3674V11.3462L12.0001 3.90854L3.63266 11.3462V20.3674L8.12248 20.367Z" fill="currentColor"/>
</svg>
