<svg width="24" height="24" viewBox="0 0 24 24" fill="none" xmlns="http://www.w3.org/2000/svg" data-karrot-ui-icon="true">
  <path fill-rule="evenodd" clip-rule="evenodd" d="M2 12C2 6.47715 6.47715 2 12 2C17.5228 2 22 6.47715 22 12C22 17.5228 17.5228 22 12 22C6.47715 22 2 17.5228 2 12ZM12 3.33333C7.21353 3.33333 3.33333 7.21353 3.33333 12C3.33333 16.7865 7.21353 20.6667 12 20.6667C16.7865 20.6667 20.6667 16.7865 20.6667 12C20.6667 7.21353 16.7865 3.33333 12 3.33333Z" fill="currentColor"/>
  <path d="M8.2644 15.7357C8.04335 15.5147 8.04335 15.1563 8.2644 14.9352L11.1996 12.0001L8.2644 9.0649C8.04335 8.84385 8.04335 8.48545 8.2644 8.2644C8.48545 8.04335 8.84385 8.04335 9.0649 8.2644L12.0001 11.1996L14.9352 8.2644C15.1563 8.04335 15.5147 8.04335 15.7357 8.2644C15.9568 8.48545 15.9568 8.84385 15.7357 9.0649L12.8006 12.0001L15.7357 14.9352C15.9568 15.1563 15.9568 15.5147 15.7357 15.7357C15.5147 15.9568 15.1563 15.9568 14.9352 15.7357L12.0001 12.8006L9.0649 15.7357C8.84385 15.9568 8.48545 15.9568 8.2644 15.7357Z" fill="currentColor"/>
</svg>
