<svg width="24" height="24" viewBox="0 0 24 24" fill="none" xmlns="http://www.w3.org/2000/svg" data-karrot-ui-icon="true">
  <path fill-rule="evenodd" clip-rule="evenodd" d="M12 3.53513L3.39995 11.1796V20.5999H8.59995V16C8.59995 14.079 10.079 12.6 12 12.6C13.9209 12.6 15.4 14.079 15.4 16V20.5999H20.5999V11.1796L12 3.53513ZM12.5314 2.40202C12.2283 2.13259 11.7716 2.13259 11.4685 2.40202L2.46846 10.402C2.29767 10.5538 2.19995 10.7714 2.19995 11V21C2.19995 21.4418 2.55812 21.7999 2.99995 21.7999H8.99995C9.44178 21.7999 9.79995 21.4417 9.79995 20.9999V16C9.79995 14.7418 10.7418 13.8 12 13.8C13.2581 13.8 14.2 14.7418 14.2 16V21C14.2 21.4418 14.5581 21.7999 15 21.7999H21C21.4418 21.7999 21.7999 21.4418 21.7999 21V11C21.7999 10.7714 21.7022 10.5538 21.5314 10.402L12.5314 2.40202Z" fill="currentColor"/>
</svg>
