<svg width="24" height="24" viewBox="0 0 24 24" fill="none" xmlns="http://www.w3.org/2000/svg" data-karrot-ui-icon="true">
  <path fill-rule="evenodd" clip-rule="evenodd" d="M12.0002 2.2002C9.34923 2.2002 7.2002 4.34923 7.2002 7.0002V9.00018H6C4.89543 9.00018 4 9.89561 4 11.0002V20.0002C4 21.1048 4.89543 22.0002 6 22.0002H18C19.1046 22.0002 20 21.1048 20 20.0002V11.0002C20 9.89561 19.1046 9.00018 18 9.00018H16.8002V7.0002C16.8002 4.34923 14.6512 2.2002 12.0002 2.2002ZM15.2002 9.00018V7.0002C15.2002 5.23288 13.7675 3.8002 12.0002 3.8002C10.2329 3.8002 8.8002 5.23288 8.8002 7.0002V9.00018H15.2002ZM14 14.0002C14 15.1048 13.1046 16.0002 12 16.0002C10.8954 16.0002 10 15.1048 10 14.0002C10 12.8956 10.8954 12.0002 12 12.0002C13.1046 12.0002 14 12.8956 14 14.0002Z" fill="currentColor"/>
</svg>
