<svg width="24" height="24" viewBox="0 0 24 24" fill="none" xmlns="http://www.w3.org/2000/svg" data-karrot-ui-icon="true">
  <path d="M3.33049 4.07007C2.87209 4.07007 2.50049 4.44167 2.50049 4.90007C2.50049 5.35846 2.87209 5.73007 3.33049 5.73007H20.1305C20.5889 5.73007 20.9605 5.35846 20.9605 4.90007C20.9605 4.44167 20.5889 4.07007 20.1305 4.07007H3.33049Z" fill="currentColor"/>
  <path d="M3.33049 11.0701C2.87209 11.0701 2.50049 11.4417 2.50049 11.9001C2.50049 12.3585 2.87209 12.7301 3.33049 12.7301H9.13049C9.58888 12.7301 9.96049 12.3585 9.96049 11.9001C9.96049 11.4417 9.58888 11.0701 9.13049 11.0701H3.33049Z" fill="currentColor"/>
  <path d="M3.33049 18.0701C2.87209 18.0701 2.50049 18.4417 2.50049 18.9001C2.50049 19.3585 2.87209 19.7301 3.33049 19.7301H9.13049C9.58888 19.7301 9.96049 19.3585 9.96049 18.9001C9.96049 18.4417 9.58888 18.0701 9.13049 18.0701H3.33049Z" fill="currentColor"/>
  <path fill-rule="evenodd" clip-rule="evenodd" d="M12.8 11.3582C12.8 11.1604 12.9587 11 13.1545 11H20.2455C20.4413 11 20.6 11.1604 20.6 11.3582V19.4168C20.6 19.5559 20.5203 19.6824 20.3956 19.7413C20.2709 19.8002 20.1238 19.7808 20.0181 19.6917L16.7 16.891L13.3819 19.6917C13.2762 19.7808 13.1291 19.8002 13.0044 19.7413C12.8797 19.6824 12.8 19.5559 12.8 19.4168V11.3582Z" fill="currentColor"/>
</svg>
