<svg width="24" height="24" viewBox="0 0 24 24" fill="none" xmlns="http://www.w3.org/2000/svg" data-karrot-ui-icon="true">
  <path fill-rule="evenodd" clip-rule="evenodd" d="M19.0711 19.0711C15.1658 22.9763 8.83417 22.9763 4.92893 19.0711C1.02369 15.1658 1.02369 8.83418 4.92893 4.92893C8.83418 1.02369 15.1658 1.02369 19.0711 4.92893C22.9763 8.83418 22.9763 15.1658 19.0711 19.0711ZM16.7141 11.4443H12.5556H11.4445H7.28602C6.9792 11.4443 6.73047 11.6931 6.73047 11.9999C6.73047 12.3067 6.9792 12.5554 7.28602 12.5554L11.4445 12.5554H12.5556L16.7141 12.5554C17.0209 12.5554 17.2697 12.3067 17.2697 11.9999C17.2697 11.6931 17.0209 11.4443 16.7141 11.4443Z" fill="currentColor"/>
</svg>
