<svg width="24" height="24" viewBox="0 0 24 24" fill="none" xmlns="http://www.w3.org/2000/svg" data-karrot-ui-icon="true">
  <path fill-rule="evenodd" clip-rule="evenodd" d="M15.3999 4.9999C15.3999 3.01168 17.0117 1.3999 18.9999 1.3999C20.9881 1.3999 22.5999 3.01168 22.5999 4.9999C22.5999 6.98813 20.9881 8.5999 18.9999 8.5999C17.9661 8.5999 17.0341 8.16417 16.3776 7.46635C16.3445 7.49309 16.308 7.5167 16.2684 7.53651L8.54946 11.396C8.58263 11.5923 8.5999 11.7941 8.5999 11.9999C8.5999 12.2057 8.58264 12.4074 8.54948 12.6038L16.2684 16.4632C16.308 16.483 16.3445 16.5066 16.3776 16.5334C17.0342 15.8356 17.9662 15.3999 18.9999 15.3999C20.9881 15.3999 22.5999 17.0117 22.5999 18.9999C22.5999 20.9881 20.9881 22.5999 18.9999 22.5999C17.0117 22.5999 15.3999 20.9881 15.3999 18.9999C15.3999 18.4754 15.5121 17.977 15.7138 17.5275L8.14925 13.7453C7.53494 14.8514 6.35484 15.5999 4.9999 15.5999C3.01168 15.5999 1.3999 13.9881 1.3999 11.9999C1.3999 10.0117 3.01168 8.3999 4.9999 8.3999C6.3548 8.3999 7.53488 9.1484 8.14921 10.2544L15.7137 6.47218C15.5121 6.02274 15.3999 5.52442 15.3999 4.9999ZM18.9999 2.5999C17.6744 2.5999 16.5999 3.67442 16.5999 4.9999C16.5999 6.32539 17.6744 7.3999 18.9999 7.3999C20.3254 7.3999 21.3999 6.32539 21.3999 4.9999C21.3999 3.67442 20.3254 2.5999 18.9999 2.5999ZM18.9999 16.5999C17.6744 16.5999 16.5999 17.6744 16.5999 18.9999C16.5999 20.3254 17.6744 21.3999 18.9999 21.3999C20.3254 21.3999 21.3999 20.3254 21.3999 18.9999C21.3999 17.6744 20.3254 16.5999 18.9999 16.5999ZM2.5999 11.9999C2.5999 10.6744 3.67442 9.5999 4.9999 9.5999C6.32539 9.5999 7.3999 10.6744 7.3999 11.9999C7.3999 13.3254 6.32539 14.3999 4.9999 14.3999C3.67442 14.3999 2.5999 13.3254 2.5999 11.9999Z" fill="currentColor"/>
</svg>
