<svg width="24" height="24" viewBox="0 0 24 24" fill="none" xmlns="http://www.w3.org/2000/svg" data-karrot-ui-icon="true">
  <path d="M4.71281 4.75877C4.50641 4.16437 3.87062 3.85461 3.29272 4.06689C2.71482 4.27918 2.41365 4.93312 2.62005 5.52752L4.4707 10.8573H3.11111C2.49746 10.8573 2 11.3689 2 12.0001C2 12.6313 2.49746 13.143 3.11111 13.143H5.26435L7.38195 19.2415C7.54548 19.7125 7.9877 20.0194 8.47349 19.999C8.95928 19.9787 9.37581 19.6359 9.50161 19.1529L11.9998 9.56013L14.4979 19.1529C14.6237 19.6359 15.0402 19.9787 15.526 19.999C16.0118 20.0194 16.454 19.7125 16.6176 19.2415L18.7352 13.143H20.8889C21.5025 13.143 22 12.6313 22 12.0001C22 11.3689 21.5025 10.8573 20.8889 10.8573H19.5288L21.3795 5.52752C21.5859 4.93312 21.2847 4.27918 20.7068 4.06689C20.1289 3.85461 19.4931 4.16437 19.2867 4.75877L15.7228 15.0225L13.073 4.84745C12.9429 4.34778 12.5027 4.00031 11.9998 4.00031C11.4968 4.00031 11.0566 4.34778 10.9265 4.84745L8.27668 15.0225L4.71281 4.75877Z" fill="currentColor"/>
</svg>
