<svg width="24" height="24" viewBox="0 0 24 24" fill="none" xmlns="http://www.w3.org/2000/svg" data-karrot-ui-icon="true">
  <path fill-rule="evenodd" clip-rule="evenodd" d="M9.49995 5.20007C9.05812 5.20007 8.69995 5.55825 8.69995 6.00007V6.70007H7.49995C7.05812 6.70007 6.69995 7.05825 6.69995 7.50007V16.5001C6.69995 16.9419 7.05812 17.3001 7.49995 17.3001H16.5C16.9418 17.3001 17.3 16.9419 17.3 16.5001V7.50007C17.3 7.05825 16.9418 6.70007 16.5 6.70007H15.3V6.00007C15.3 5.55825 14.9418 5.20007 14.5 5.20007C14.0581 5.20007 13.7 5.55825 13.7 6.00007V6.70007H10.3V6.00007C10.3 5.55825 9.94178 5.20007 9.49995 5.20007ZM8.29995 9.70007V8.30007H15.7V9.70007H8.29995ZM8.29995 15.7001V11.3001H15.7V15.7001H8.29995Z" fill="currentColor"/>
  <path fill-rule="evenodd" clip-rule="evenodd" d="M12 1.69995C6.31142 1.69995 1.69995 6.31142 1.69995 12C1.69995 17.6885 6.31142 22.3 12 22.3C17.6885 22.3 22.3 17.6885 22.3 12C22.3 6.31142 17.6885 1.69995 12 1.69995ZM3.29995 12C3.29995 7.19507 7.19507 3.29995 12 3.29995C16.8048 3.29995 20.7 7.19507 20.7 12C20.7 16.8048 16.8048 20.7 12 20.7C7.19507 20.7 3.29995 16.8048 3.29995 12Z" fill="currentColor"/>
</svg>
