<svg width="24" height="24" viewBox="0 0 24 24" fill="none" xmlns="http://www.w3.org/2000/svg" data-karrot-ui-icon="true">
  <path d="M7.9999 12.5001C7.39239 12.5001 6.8999 12.9925 6.8999 13.6001C6.8999 14.2076 7.39239 14.7001 7.9999 14.7001C8.60742 14.7001 9.0999 14.2076 9.0999 13.6001C9.0999 12.9925 8.60742 12.5001 7.9999 12.5001Z" fill="currentColor"/>
  <path d="M7.9999 16.5001C7.39239 16.5001 6.8999 16.9925 6.8999 17.6001C6.8999 18.2076 7.39239 18.7001 7.9999 18.7001C8.60742 18.7001 9.0999 18.2076 9.0999 17.6001C9.0999 16.9925 8.60742 16.5001 7.9999 16.5001Z" fill="currentColor"/>
  <path d="M11.9999 12.5001C11.3924 12.5001 10.8999 12.9925 10.8999 13.6001C10.8999 14.2076 11.3924 14.7001 11.9999 14.7001C12.6074 14.7001 13.0999 14.2076 13.0999 13.6001C13.0999 12.9925 12.6074 12.5001 11.9999 12.5001Z" fill="currentColor"/>
  <path d="M11.9999 16.5001C11.3924 16.5001 10.8999 16.9925 10.8999 17.6001C10.8999 18.2076 11.3924 18.7001 11.9999 18.7001C12.6074 18.7001 13.0999 18.2076 13.0999 17.6001C13.0999 16.9925 12.6074 16.5001 11.9999 16.5001Z" fill="currentColor"/>
  <path d="M15.9999 12.5001C15.3924 12.5001 14.8999 12.9925 14.8999 13.6001C14.8999 14.2076 15.3924 14.7001 15.9999 14.7001C16.6074 14.7001 17.0999 14.2076 17.0999 13.6001C17.0999 12.9925 16.6074 12.5001 15.9999 12.5001Z" fill="currentColor"/>
  <path d="M15.9999 16.5001C15.3924 16.5001 14.8999 16.9925 14.8999 17.6001C14.8999 18.2076 15.3924 18.7001 15.9999 18.7001C16.6074 18.7001 17.0999 18.2076 17.0999 17.6001C17.0999 16.9925 16.6074 16.5001 15.9999 16.5001Z" fill="currentColor"/>
  <path fill-rule="evenodd" clip-rule="evenodd" d="M8.8002 2.60005C8.8002 2.15822 8.44202 1.80005 8.0002 1.80005C7.55837 1.80005 7.2002 2.15822 7.2002 2.60005V4.00061H2.65C2.29101 4.00061 2 4.29163 2 4.65061V21.5501C2 21.909 2.29101 22.2001 2.65 22.2001H21.35C21.709 22.2001 22 21.909 22 21.5501V4.65061C22 4.29163 21.709 4.00061 21.35 4.00061H16.8002V2.60005C16.8002 2.15822 16.442 1.80005 16.0002 1.80005C15.5584 1.80005 15.2002 2.15822 15.2002 2.60005V4.00061H8.8002V2.60005ZM15.2002 6.60005V5.60061H8.8002V6.60005C8.8002 7.04188 8.44202 7.40005 8.0002 7.40005C7.55837 7.40005 7.2002 7.04188 7.2002 6.60005V5.60061H3.6V8.80005H20.4V5.60061H16.8002V6.60005C16.8002 7.04188 16.442 7.40005 16.0002 7.40005C15.5584 7.40005 15.2002 7.04188 15.2002 6.60005ZM20.4 10.4H3.6V20.6001H20.4V10.4Z" fill="currentColor"/>
</svg>
