<svg width="24" height="24" viewBox="0 0 24 24" fill="none" xmlns="http://www.w3.org/2000/svg" data-karrot-ui-icon="true">
  <path fill-rule="evenodd" clip-rule="evenodd" d="M1.19971 6.0002C1.19971 4.4538 2.4533 3.2002 3.99969 3.2002H19.9997C21.5461 3.2002 22.7997 4.45381 22.7997 6.0002V18.0002C22.7997 19.5465 21.5461 20.8002 19.9997 20.8002H3.99971C2.45331 20.8002 1.19971 19.5465 1.19971 18.0002V6.0002ZM3.84022 7.88011C4.10532 7.52664 4.60676 7.45501 4.96022 7.72011L11.88 12.9102C11.9511 12.9635 12.0489 12.9635 12.12 12.9102L19.0399 7.72011C19.3934 7.45501 19.8948 7.52664 20.1599 7.88011C20.425 8.23357 20.3534 8.73501 19.9999 9.00011L13.08 14.1902C12.44 14.6702 11.56 14.6702 10.92 14.1902L4.00022 9.00011C3.64676 8.73501 3.57513 8.23357 3.84022 7.88011Z" fill="currentColor"/>
</svg>
