<svg width="24" height="24" viewBox="0 0 24 24" fill="none" xmlns="http://www.w3.org/2000/svg" data-karrot-ui-icon="true">
  <path fill-rule="evenodd" clip-rule="evenodd" d="M21.9622 11.7792C21.9623 11.7795 21.9625 11.7798 21.3332 12.0001C21.9625 12.2203 21.9623 12.2206 21.9622 12.221L21.9612 12.2238L21.9591 12.2298L21.9522 12.2489C21.9464 12.2647 21.9382 12.2867 21.9275 12.3145C21.9061 12.37 21.8747 12.4487 21.8328 12.5473C21.7491 12.7443 21.623 13.0213 21.4495 13.3516C21.1034 14.011 20.5648 14.8906 19.7933 15.7724C18.2445 17.5425 15.7409 19.3334 11.9999 19.3334C8.25885 19.3334 5.7553 17.5425 4.2065 15.7724C3.43494 14.8906 2.89641 14.011 2.55025 13.3516C2.37681 13.0213 2.25065 12.7443 2.16693 12.5473C2.12504 12.4487 2.09371 12.37 2.07232 12.3145C2.06162 12.2867 2.0534 12.2647 2.0476 12.2489L2.04068 12.2298L2.03856 12.2238L2.03783 12.2218C2.03771 12.2214 2.03731 12.2203 2.66655 12.0001C2.03731 11.7798 2.03742 11.7795 2.03754 11.7792L2.03856 11.7763L2.04068 11.7704L2.0476 11.7513C2.0534 11.7355 2.06162 11.7135 2.07232 11.6857C2.09371 11.6301 2.12504 11.5514 2.16693 11.4529C2.25065 11.2559 2.37681 10.9789 2.55025 10.6485C2.89641 9.98917 3.43494 9.10953 4.2065 8.22774C5.7553 6.4577 8.25885 4.66675 11.9999 4.66675C15.7409 4.66675 18.2445 6.4577 19.7933 8.22774C20.5648 9.10953 21.1034 9.98917 21.4495 10.6485C21.623 10.9789 21.7491 11.2559 21.8328 11.4529C21.8747 11.5514 21.9061 11.6301 21.9275 11.6857C21.9382 11.7135 21.9464 11.7355 21.9522 11.7513L21.9591 11.7704L21.9612 11.7763L21.9622 11.7792ZM3.73078 12.7319C3.57609 12.4372 3.46526 12.1934 3.39404 12.0258L3.38317 12.0001L3.39404 11.9744C3.46526 11.8068 3.57609 11.563 3.73078 11.2683C4.04086 10.6777 4.52317 9.89063 5.20994 9.10575C6.57781 7.54247 8.74093 6.00008 11.9999 6.00008C15.2588 6.00008 17.422 7.54247 18.7898 9.10575C19.4766 9.89063 19.9589 10.6777 20.269 11.2683C20.4237 11.563 20.5345 11.8068 20.6057 11.9744L20.6166 12.0001L20.6057 12.0258C20.5345 12.1934 20.4237 12.4372 20.269 12.7319C19.9589 13.3225 19.4766 14.1095 18.7898 14.8944C17.422 16.4577 15.2588 18.0001 11.9999 18.0001C8.74093 18.0001 6.57781 16.4577 5.20994 14.8944C4.52317 14.1095 4.04086 13.3225 3.73078 12.7319ZM21.3332 12.0001L21.9622 11.7792C22.0121 11.9218 22.0121 12.0784 21.9622 12.221L21.3332 12.0001Z" fill="currentColor"/>
  <path d="M2.03754 11.7792L2.66655 12.0001L2.03731 12.2203C1.98741 12.0777 1.98764 11.9218 2.03754 11.7792Z" fill="currentColor"/>
  <path d="M15.9715 11.5213C15.5587 11.8224 15.05 12.0001 14.4999 12.0001C13.1192 12.0001 11.9999 10.8808 11.9999 9.50008C11.9999 8.94994 12.1776 8.44131 12.4787 8.02845C12.3217 8.00972 12.1619 8.00008 11.9999 8.00008C9.79075 8.00008 7.99989 9.79094 7.99989 12.0001C7.99989 14.2092 9.79075 16.0001 11.9999 16.0001C14.209 16.0001 15.9999 14.2092 15.9999 12.0001C15.9999 11.838 15.9903 11.6783 15.9715 11.5213Z" fill="currentColor"/>
</svg>
