<svg width="24" height="24" viewBox="0 0 24 24" fill="none" xmlns="http://www.w3.org/2000/svg" data-karrot-ui-icon="true">
  <path fill-rule="evenodd" clip-rule="evenodd" d="M13.2806 2.7749C12.0104 2.7749 10.9806 3.80465 10.9806 5.0749C10.9806 6.34516 12.0104 7.3749 13.2806 7.3749C14.5509 7.3749 15.5806 6.34516 15.5806 5.0749C15.5806 3.80465 14.5509 2.7749 13.2806 2.7749ZM12.0806 5.0749C12.0806 4.41216 12.6179 3.8749 13.2806 3.8749C13.9434 3.8749 14.4806 4.41216 14.4806 5.0749C14.4806 5.73764 13.9434 6.2749 13.2806 6.2749C12.6179 6.2749 12.0806 5.73764 12.0806 5.0749Z" fill="currentColor"/>
  <path fill-rule="evenodd" clip-rule="evenodd" d="M14.3611 10.4633C14.4073 10.1631 14.2014 9.88228 13.9011 9.83609C13.6009 9.7899 13.3201 9.99584 13.2739 10.2961L12.7022 14.0125C12.6778 14.171 12.7238 14.3323 12.8282 14.454L14.411 16.3007V19.8136C14.411 19.9835 14.2733 20.1213 14.1034 20.1213C13.9335 20.1213 13.7958 19.9835 13.7958 19.8136V16.669C13.7958 16.5403 13.7507 16.4157 13.6683 16.3169L10.8095 12.8864C10.7192 12.778 10.5961 12.7132 10.4667 12.6943C10.4322 12.6892 10.3977 12.6875 10.3636 12.6889C10.2601 12.6933 10.157 12.7268 10.0677 12.7906C10.0199 12.8246 9.97724 12.8664 9.94188 12.9152C9.91316 12.9547 9.89024 12.9973 9.87324 13.0418L8.55344 16.3413L6.45066 18.1698C6.0245 18.5404 5.86318 19.131 6.04177 19.6668C6.35309 20.6007 7.50655 20.9288 8.26284 20.2986L10.739 18.2351C10.8092 18.1767 10.8637 18.1017 10.8976 18.0169L11.7912 15.7827L12.6958 16.8681V19.8136C12.6958 20.591 13.326 21.2213 14.1034 21.2213C14.8808 21.2213 15.511 20.591 15.511 19.8136V16.0972C15.511 15.9659 15.4641 15.839 15.3786 15.7393L13.8278 13.93L13.9171 13.3495L14.715 13.7485L14.7207 13.7513L15.9666 14.3565C16.6529 14.6898 17.4801 14.4287 17.8506 13.7617C18.2479 13.0466 17.9689 12.1445 17.2371 11.7786L16.0193 11.1697L15.5003 8.57467C15.4563 8.35458 15.2829 8.18332 15.0623 8.14195L10.4883 7.28432C10.3368 7.25591 10.1803 7.2924 10.0569 7.3849L6.62641 9.95779C6.48792 10.0617 6.40641 10.2247 6.40641 10.3978V12.3989C6.40641 13.1763 7.03663 13.8066 7.81404 13.8066C8.59145 13.8066 9.22167 13.1763 9.22167 12.3989V11.5304L10.1452 10.8378C10.3882 10.6555 10.4374 10.3108 10.2552 10.0678C10.0729 9.82479 9.72819 9.77554 9.48518 9.95779L8.12167 10.9804V12.3989C8.12167 12.5688 7.98394 12.7066 7.81404 12.7066C7.64414 12.7066 7.50641 12.5688 7.50641 12.3989V10.6728L10.5234 8.41007L14.4945 9.15465L15.0462 11.9129L16.7452 12.7624C16.9168 12.8482 16.9822 13.0598 16.889 13.2275C16.8021 13.3839 16.6082 13.4452 16.4472 13.367L15.2041 12.7632L14.0928 12.2076L14.3611 10.4633ZM10.9907 14.8221L10.555 14.2992L9.52536 16.8734C9.4929 16.9545 9.44156 17.0268 9.3756 17.0841L7.17245 18.9999C7.08164 19.0789 7.04726 19.2047 7.08532 19.3189C7.15166 19.5179 7.39747 19.5879 7.55864 19.4536L9.92792 17.4792L10.9907 14.8221Z" fill="currentColor"/>
</svg>
