<svg width="24" height="24" viewBox="0 0 24 24" fill="none" xmlns="http://www.w3.org/2000/svg" data-karrot-ui-icon="true">
  <path d="M12.6875 6.5C12.6875 6.1203 12.3797 5.8125 12 5.8125C11.6203 5.8125 11.3125 6.1203 11.3125 6.5V12.6875C11.3125 12.9479 11.4596 13.186 11.6925 13.3024L17.1925 16.0524C17.5322 16.2222 17.9451 16.0846 18.1149 15.745C18.2847 15.4053 18.1471 14.9924 17.8075 14.8226L12.6875 12.2626V6.5Z" fill="currentColor"/>
  <path fill-rule="evenodd" clip-rule="evenodd" d="M12 1C5.92487 1 1 5.92487 1 12C1 18.0751 5.92487 23 12 23C18.0751 23 23 18.0751 23 12C23 5.92487 18.0751 1 12 1ZM2.375 12C2.375 6.68426 6.68426 2.375 12 2.375C17.3157 2.375 21.625 6.68426 21.625 12C21.625 17.3157 17.3157 21.625 12 21.625C6.68426 21.625 2.375 17.3157 2.375 12Z" fill="currentColor"/>
</svg>
