<svg width="24" height="24" viewBox="0 0 24 24" fill="none" xmlns="http://www.w3.org/2000/svg" data-karrot-ui-icon="true">
  <path fill-rule="evenodd" clip-rule="evenodd" d="M20.9871 3.72829C21.7209 3.61966 22.4331 4.02967 22.7077 4.71878L22.7469 4.82236C22.7666 4.87661 22.7925 4.95033 22.8226 5.0425C22.8829 5.22672 22.9605 5.48528 23.041 5.80992C23.2016 6.4584 23.3746 7.37601 23.4403 8.49542C23.5718 10.7391 23.2711 13.7992 21.5752 17.1018C20.0085 20.1528 16.2923 21.4726 13.2276 19.8989C12.6724 19.6138 12.1818 19.2559 11.7601 18.8429C11.6284 19.0115 11.4849 19.174 11.3295 19.3295C9.23212 21.4268 5.84291 21.3552 3.75998 19.2723C2.0974 17.6097 1.26832 15.0243 0.836355 13.1168C0.610634 12.1201 0.474035 11.216 0.393598 10.5613C0.35325 10.233 0.326706 9.96464 0.31007 9.77554C0.301746 9.68092 0.295886 9.60594 0.292008 9.55299L0.285829 9.46232C0.256844 8.97865 0.448608 8.50789 0.807316 8.18214C1.16602 7.85639 1.65303 7.71074 2.13168 7.78607L2.2154 7.79991C2.26415 7.80822 2.33311 7.8203 2.42015 7.83638C2.59411 7.86852 2.84096 7.91675 3.14357 7.9829C3.74713 8.11483 4.58116 8.3199 5.50612 8.6138C7.10767 9.12269 9.17879 9.95734 10.7455 11.2774C12.4749 8.03311 14.9891 6.15203 17.0678 5.08742C18.1279 4.54451 19.0827 4.20922 19.7803 4.00807C20.1299 3.90727 20.4173 3.83949 20.6239 3.79588C20.7274 3.77407 20.8108 3.75825 20.8721 3.74736L20.9871 3.72829ZM10.1166 12.8673C8.37773 11.1472 5.37715 10.1774 3.51844 9.71375C2.54368 9.47059 1.88296 9.36662 1.88296 9.36662C1.88296 9.36662 1.92308 10.0361 2.07205 11.0279C2.37397 13.0382 3.12301 16.3725 4.89135 18.1409C6.2983 19.5478 8.51248 19.6415 9.97329 18.405L5.63419 14.0659C5.32177 13.7535 5.32177 13.247 5.63419 12.9346C5.94661 12.6221 6.45314 12.6221 6.76556 12.9346L10.2508 16.4197C9.87514 15.295 9.8186 14.06 10.1166 12.8673ZM21.2214 5.31104C21.2214 5.31104 23.2355 10.3658 20.1519 16.3709C18.9658 18.6807 16.193 19.623 13.9585 18.4756C13.7231 18.3547 13.5031 18.2155 13.2992 18.0604L15.5209 14.9995C15.5403 14.9989 15.5599 14.9977 15.5796 14.9957L19.5796 14.5955C20.0192 14.5516 20.3399 14.1595 20.296 13.7199C20.252 13.2802 19.8599 12.9595 19.4203 13.0035L16.7777 13.2679L19.8974 8.96963C20.1569 8.61206 20.0775 8.1118 19.7199 7.85227C19.3623 7.59274 18.8621 7.67222 18.6025 8.02979L12.2036 16.8461C11.3831 15.5059 11.2714 13.7519 12.0602 12.2159C15.1438 6.2107 21.2214 5.31104 21.2214 5.31104Z" fill="currentColor"/>
</svg>
