<svg width="24" height="24" viewBox="0 0 24 24" fill="none" xmlns="http://www.w3.org/2000/svg" data-karrot-ui-icon="true">
  <path d="M18.4345 14.4343C18.7469 14.1218 19.2535 14.1218 19.5659 14.4343C19.8783 14.7467 19.8783 15.2532 19.5659 15.5656L17.9316 17.2H22.0001C22.4419 17.2 22.8001 17.5581 22.8001 18C22.8001 18.4418 22.4419 18.8 22.0001 18.8H17.9316L19.5659 20.4343C19.8783 20.7467 19.8783 21.2532 19.5659 21.5656C19.2535 21.8781 18.7469 21.8781 18.4345 21.5656L15.4345 18.5656C15.1221 18.2532 15.1221 17.7467 15.4345 17.4343L18.4345 14.4343Z" fill="currentColor"/>
  <path d="M3.0002 2.19995C2.55837 2.19995 2.2002 2.55812 2.2002 2.99995V21C2.2002 21.4418 2.55837 21.7999 3.0002 21.7999H14.0002C14.442 21.7999 14.8002 21.4418 14.8002 21C14.8002 20.5581 14.442 20.2 14.0002 20.2H3.8002V3.79995H20.2002V12C20.2002 12.4418 20.5584 12.8 21.0002 12.8C21.442 12.8 21.8002 12.4418 21.8002 12V2.99995C21.8002 2.55812 21.442 2.19995 21.0002 2.19995H3.0002Z" fill="currentColor"/>
  <path d="M7.0002 7.19995C6.55837 7.19995 6.2002 7.55812 6.2002 7.99995C6.2002 8.44178 6.55837 8.79995 7.0002 8.79995H17.0002C17.442 8.79995 17.8002 8.44178 17.8002 7.99995C17.8002 7.55812 17.442 7.19995 17.0002 7.19995H7.0002Z" fill="currentColor"/>
  <path d="M7.0002 11.2C6.55837 11.2 6.2002 11.5581 6.2002 12C6.2002 12.4418 6.55837 12.8 7.0002 12.8H15.0002C15.442 12.8 15.8002 12.4418 15.8002 12C15.8002 11.5581 15.442 11.2 15.0002 11.2H7.0002Z" fill="currentColor"/>
  <path d="M6.2002 16C6.2002 15.5581 6.55837 15.2 7.0002 15.2H12.0002C12.442 15.2 12.8002 15.5581 12.8002 16C12.8002 16.4418 12.442 16.8 12.0002 16.8H7.0002C6.55837 16.8 6.2002 16.4418 6.2002 16Z" fill="currentColor"/>
</svg>
