<svg width="24" height="24" viewBox="0 0 24 24" fill="none" xmlns="http://www.w3.org/2000/svg" data-karrot-ui-icon="true">
  <path fill-rule="evenodd" clip-rule="evenodd" d="M12.0002 3.39995C7.25055 3.39995 3.4002 7.2503 3.4002 12C3.4002 16.7496 7.25055 20.5999 12.0002 20.5999C16.7498 20.5999 20.6002 16.7496 20.6002 12C20.6002 7.2503 16.7498 3.39995 12.0002 3.39995ZM12.0002 2.19995C6.5878 2.19995 2.2002 6.58756 2.2002 12C2.2002 17.4123 6.5878 21.7999 12.0002 21.7999C17.4126 21.7999 21.8002 17.4123 21.8002 12C21.8002 6.58756 17.4126 2.19995 12.0002 2.19995Z" fill="currentColor"/>
  <path d="M13.7852 15.6269C13.5985 15.5335 13.3853 15.6002 13.2519 15.7868C13.2281 15.8203 13.1952 15.8726 13.1548 15.9367C12.9701 16.2305 12.6289 16.773 12.2788 16.8934C12.0255 16.9734 11.7722 16.7868 11.9722 15.7202C12.1721 14.6536 12.9453 10.5206 12.972 10.3606C12.9987 10.2006 12.932 10.1206 12.892 10.0806C12.8387 10.0273 12.7454 9.97397 12.5854 10.014C12.5587 10.0273 11.9855 10.2006 11.4123 10.3739L10.3191 10.7206C10.0792 10.7872 9.95918 10.9872 10.0125 11.2005C10.0392 11.3072 10.1058 11.4139 10.1991 11.4672C10.2925 11.5338 10.3991 11.5472 10.5058 11.5205C10.5591 11.5072 10.6657 11.4805 10.7857 11.4405C10.8257 11.4272 10.8657 11.4172 10.9057 11.4072C10.9457 11.3972 10.9857 11.3872 11.0257 11.3739C10.8657 12.2138 10.2258 15.4002 10.2258 15.4002C10.0925 16.1601 10.0525 16.6801 10.1325 17.0134C10.2258 17.4 10.4524 17.68 10.8124 17.8533C11.0123 17.9333 11.2256 17.9867 11.4523 18C11.6256 18 11.7989 17.9867 11.9988 17.9467C12.7454 17.8 13.2519 17.2534 13.4919 16.9334C13.7185 16.6401 13.8652 16.3468 13.9585 16.1468C14.0518 15.9468 13.9851 15.7335 13.7852 15.6269Z" fill="currentColor"/>
  <path d="M12.0498 9C12.7402 9 13.2998 8.44036 13.2998 7.75C13.2998 7.05964 12.7402 6.5 12.0498 6.5C11.3594 6.5 10.7998 7.05964 10.7998 7.75C10.7998 8.44036 11.3594 9 12.0498 9Z" fill="currentColor"/>
</svg>
