<svg width="24" height="24" viewBox="0 0 24 24" fill="none" xmlns="http://www.w3.org/2000/svg" data-karrot-ui-icon="true">
  <path fill-rule="evenodd" clip-rule="evenodd" d="M5.81197 9.63267C7.07107 8.1937 9.02989 6.8002 11.9999 6.8002C14.9698 6.8002 16.9286 8.1937 18.1878 9.63267C18.8236 10.3594 19.2722 11.0909 19.5607 11.6403C19.6302 11.7728 19.6899 11.8937 19.7403 12.0002C19.6899 12.1067 19.6302 12.2276 19.5607 12.3601C19.2722 12.9095 18.8236 13.641 18.1878 14.3677C16.9286 15.8067 14.9698 17.2002 11.9999 17.2002C9.02989 17.2002 7.07107 15.8067 5.81197 14.3677C5.17608 13.641 4.72751 12.9095 4.43907 12.3601C4.36951 12.2276 4.30978 12.1067 4.25944 12.0002C4.30978 11.8937 4.36951 11.7728 4.43907 11.6403C4.72751 11.0909 5.17608 10.3594 5.81197 9.63267ZM11.9999 5.2002C8.45192 5.2002 6.08449 6.89147 4.60785 8.57906C3.8702 9.42209 3.35416 10.2647 3.02243 10.8966C2.85649 11.2126 2.73647 11.4764 2.65775 11.6616C2.56623 11.878 2.56623 12.1223 2.65775 12.3388C2.73647 12.524 2.8565 12.7878 3.02243 13.1038C3.35416 13.7357 3.8702 14.5783 4.60785 15.4213C6.08449 17.1089 8.45192 18.8002 11.9999 18.8002C15.5478 18.8002 17.9152 17.1089 19.3919 15.4213C20.1295 14.5783 20.6456 13.7357 20.9773 13.1038C21.1432 12.7878 21.2632 12.524 21.342 12.3388L21.3426 12.3374C21.4337 12.1218 21.4337 11.8786 21.3426 11.663L21.342 11.6616C21.2632 11.4764 21.1432 11.2126 20.9773 10.8966C20.6456 10.2647 20.1295 9.42209 19.3919 8.57906C17.9152 6.89147 15.5478 5.2002 11.9999 5.2002ZM14.4998 12C15.0499 12 15.5585 11.8223 15.9714 11.5212C15.9901 11.6782 15.9998 11.838 15.9998 12C15.9998 14.2091 14.2089 16 11.9998 16C9.79062 16 7.99976 14.2091 7.99976 12C7.99976 9.79086 9.79062 8 11.9998 8C12.1618 8 12.3216 8.00964 12.4786 8.02836C12.1775 8.44123 11.9998 8.94986 11.9998 9.5C11.9998 10.8807 13.119 12 14.4998 12Z" fill="currentColor"/>
</svg>
