<svg width="24" height="24" viewBox="0 0 24 24" fill="none" xmlns="http://www.w3.org/2000/svg" data-karrot-ui-icon="true">
  <path d="M11.8501 4.8501C10.9698 4.8501 10.1297 5.01211 9.35635 5.30705C8.84032 5.50386 8.26245 5.24507 8.06565 4.72904C7.86884 4.21301 8.12762 3.63515 8.64365 3.43834C9.64104 3.05796 10.7225 2.8501 11.8501 2.8501C16.8207 2.8501 20.8501 6.87953 20.8501 11.8501C20.8501 13.282 20.5152 14.6367 19.9197 15.8392L20.3337 15.7012C20.8576 15.5266 21.4239 15.8097 21.5986 16.3337C21.7732 16.8576 21.4901 17.4239 20.9661 17.5986L17.9661 18.5986C17.6887 18.6911 17.3846 18.6575 17.1341 18.5066C16.8835 18.3558 16.7116 18.1028 16.6635 17.8143L16.1635 14.8143C16.0727 14.2695 16.4407 13.7543 16.9855 13.6635C17.5303 13.5727 18.0455 13.9407 18.1363 14.4855L18.1918 14.8183C18.6142 13.9174 18.8501 12.9118 18.8501 11.8501C18.8501 7.9841 15.7161 4.8501 11.8501 4.8501Z" fill="currentColor"/>
  <path d="M5.55137 8.79202L5.61345 9.16449C5.70425 9.70926 6.21947 10.0773 6.76424 9.98648C7.30901 9.89569 7.67703 9.38046 7.58624 8.83569L7.08624 5.83569C7.03816 5.54721 6.8662 5.29424 6.61565 5.14338C6.3651 4.99253 6.06107 4.95892 5.78362 5.0514L2.78362 6.0514C2.25967 6.22605 1.97651 6.79237 2.15116 7.31632C2.32581 7.84026 2.89213 8.12342 3.41607 7.94877L3.80062 7.82059C3.19252 9.03322 2.8501 10.4024 2.8501 11.8501C2.8501 16.8207 6.87953 20.8501 11.8501 20.8501C12.9787 20.8501 14.061 20.6419 15.0591 20.2609C15.5751 20.0639 15.8337 19.486 15.6367 18.97C15.4397 18.454 14.8618 18.1954 14.3458 18.3924C13.5719 18.6878 12.7311 18.8501 11.8501 18.8501C7.9841 18.8501 4.8501 15.7161 4.8501 11.8501C4.8501 10.7528 5.10203 9.7156 5.55137 8.79202Z" fill="currentColor"/>
</svg>
