<svg width="24" height="24" viewBox="0 0 24 24" fill="none" xmlns="http://www.w3.org/2000/svg" data-karrot-ui-icon="true">
  <path fill-rule="evenodd" clip-rule="evenodd" d="M12.05 3.2002C9.81325 3.2002 8 5.01344 8 7.25019V7.6001H4.19985C3.86848 7.6001 3.59985 7.86873 3.59985 8.2001V20.4001C3.59985 20.7315 3.86848 21.0001 4.19985 21.0001H19.7999C20.1312 21.0001 20.3999 20.7315 20.3999 20.4001V8.2001C20.3999 7.86873 20.1312 7.6001 19.7999 7.6001H16.1V7.2502C16.1 5.01344 14.2868 3.2002 12.05 3.2002ZM14.5 9.2001V11.8769C14.5 12.3188 14.8582 12.6769 15.3 12.6769C15.7418 12.6769 16.1 12.3188 16.1 11.8769V9.2001H18.7999V19.4001H5.19985V9.2001H8V11.8769C8 12.3188 8.35817 12.6769 8.8 12.6769C9.24183 12.6769 9.6 12.3188 9.6 11.8769V9.2001H14.5ZM14.5 7.6001V7.2502C14.5 5.8971 13.4031 4.8002 12.05 4.8002C10.6969 4.8002 9.6 5.8971 9.6 7.25019V7.6001H14.5Z" fill="currentColor"/>
</svg>
