<svg width="24" height="24" viewBox="0 0 24 24" fill="none" xmlns="http://www.w3.org/2000/svg" data-karrot-ui-icon="true">
  <path fill-rule="evenodd" clip-rule="evenodd" d="M12.3308 18.7126C12.1872 18.6518 12.0331 18.6195 11.8772 18.6176C7.01145 18.5586 3.2 15.0693 3.2 10.917C3.2 6.72847 7.07913 3.2 12 3.2C16.9223 3.2 20.8 6.71418 20.8 10.9014C20.8 13.5945 19.2174 15.9927 16.7694 17.3778C16.3271 17.6281 16.0904 18.1298 16.1785 18.6303L16.504 20.479C15.8067 20.1854 14.561 19.6576 12.3308 18.7126ZM17.6666 21.8028C17.8203 21.649 17.8898 21.4295 17.8521 21.2154L17.3603 18.4222C20.1237 16.8587 22 14.0928 22 10.9014C22 5.91162 17.436 2 12 2C6.56225 2 2 5.92871 2 10.917C2 15.8646 6.4873 19.7523 11.8626 19.8175C14.3702 20.88 15.636 21.4164 16.2766 21.685C16.5989 21.8203 16.7716 21.8914 16.8654 21.9276C16.9013 21.9415 16.9629 21.9652 17.0241 21.98L17.0261 21.9805C17.0503 21.9864 17.1577 22.0125 17.2909 21.9924C17.3771 21.9795 17.4667 21.9488 17.551 21.8954C17.5894 21.871 17.6186 21.847 17.6382 21.8296C17.6477 21.8211 17.6552 21.8139 17.6598 21.8094L17.6652 21.8041L17.6666 21.8028Z" fill="currentColor"/>
</svg>
