<svg width="24" height="24" viewBox="0 0 24 24" fill="none" xmlns="http://www.w3.org/2000/svg" data-karrot-ui-icon="true">
  <path d="M18.2072 6.18033C18.1631 6.10123 18.1075 6.02684 18.0403 5.95964C17.8399 5.7593 17.5757 5.66174 17.3132 5.66695L8 5.66691C7.44772 5.66691 7 6.11462 7 6.66691C6.99999 7.21919 7.44771 7.66691 7.99999 7.66691L14.9188 7.66694L5.9594 16.6263C5.56887 17.0168 5.56887 17.65 5.9594 18.0405C6.34992 18.431 6.98309 18.431 7.37361 18.0405L16.3334 9.08076V16.0002C16.3334 16.5525 16.7811 17.0002 17.3334 17.0002C17.8856 17.0002 18.3334 16.5525 18.3334 16.0002V6.66695C18.3334 6.4903 18.2876 6.32435 18.2072 6.18033Z" fill="currentColor"/>
</svg>
