<svg width="24" height="24" viewBox="0 0 24 24" fill="none" xmlns="http://www.w3.org/2000/svg" data-karrot-ui-icon="true">
  <path d="M11.4001 4.9999C11.4001 5.33127 11.6688 5.5999 12.0001 5.5999C12.3315 5.5999 12.6001 5.33127 12.6001 4.9999V2.9999C12.6001 2.66853 12.3315 2.3999 12.0001 2.3999C11.6688 2.3999 11.4001 2.66853 11.4001 2.9999V4.9999Z" fill="currentColor"/>
  <path fill-rule="evenodd" clip-rule="evenodd" d="M12 17.4998C15.0376 17.4998 17.5 15.0374 17.5 11.9998C17.5 8.96224 15.0376 6.4998 12 6.4998C8.96248 6.4998 6.50005 8.96224 6.50005 11.9998C6.50005 15.0374 8.96248 17.4998 12 17.4998ZM12 16.2998C14.3749 16.2998 16.3 14.3746 16.3 11.9998C16.3 9.62498 14.3749 7.6998 12 7.6998C9.62522 7.6998 7.70005 9.62498 7.70005 11.9998C7.70005 14.3746 9.62522 16.2998 12 16.2998Z" fill="currentColor"/>
  <path d="M12 18.3997C12.3313 18.3997 12.6 18.6683 12.6 18.9997V20.9997C12.6 21.3311 12.3313 21.5997 12 21.5997C11.6686 21.5997 11.4 21.3311 11.4 20.9997V18.9997C11.4 18.6683 11.6686 18.3997 12 18.3997Z" fill="currentColor"/>
  <path d="M5.60015 11.9997C5.60015 12.3311 5.33152 12.5997 5.00015 12.5997H3.00015C2.66878 12.5997 2.40015 12.3311 2.40015 11.9997C2.40015 11.6683 2.66878 11.3997 3.00015 11.3997H5.00015C5.33152 11.3997 5.60015 11.6683 5.60015 11.9997Z" fill="currentColor"/>
  <path d="M7.13012 17.7182C7.36444 17.4838 7.36444 17.1039 7.13012 16.8696C6.89581 16.6353 6.51591 16.6353 6.28159 16.8696L5.15854 17.9927C4.92423 18.227 4.92423 18.6069 5.15854 18.8412C5.39286 19.0755 5.77276 19.0755 6.00707 18.8412L7.13012 17.7182Z" fill="currentColor"/>
  <path d="M7.13023 7.12988C6.89591 7.36419 6.51601 7.36419 6.2817 7.12988L5.15865 6.00683C4.92433 5.77251 4.92433 5.39261 5.15865 5.1583C5.39296 4.92398 5.77286 4.92398 6.00718 5.1583L7.13023 6.28135C7.36454 6.51567 7.36454 6.89556 7.13023 7.12988Z" fill="currentColor"/>
  <path d="M19 11.3999C18.6686 11.3999 18.4 11.6685 18.4 11.9999C18.4 12.3313 18.6686 12.5999 19 12.5999H21C21.3313 12.5999 21.6 12.3313 21.6 11.9999C21.6 11.6685 21.3313 11.3999 21 11.3999H19Z" fill="currentColor"/>
  <path d="M16.87 7.12998C16.6357 6.89567 16.6357 6.51577 16.87 6.28146L17.993 5.1584C18.2273 4.92409 18.6072 4.92409 18.8416 5.1584C19.0759 5.39272 19.0759 5.77262 18.8416 6.00693L17.7185 7.12998C17.4842 7.3643 17.1043 7.3643 16.87 7.12998Z" fill="currentColor"/>
  <path d="M17.7184 16.8697C17.4841 16.6354 17.1042 16.6354 16.8699 16.8697C16.6356 17.104 16.6356 17.4839 16.8699 17.7183L17.9929 18.8413C18.2272 19.0756 18.6071 19.0756 18.8414 18.8413C19.0758 18.607 19.0758 18.2271 18.8414 17.9928L17.7184 16.8697Z" fill="currentColor"/>
</svg>
