<svg width="24" height="24" viewBox="0 0 24 24" fill="none" xmlns="http://www.w3.org/2000/svg" data-karrot-ui-icon="true">
  <path d="M7.2002 7.99995C7.2002 7.55812 7.55837 7.19995 8.0002 7.19995H16.0002C16.442 7.19995 16.8002 7.55812 16.8002 7.99995C16.8002 8.44178 16.442 8.79995 16.0002 8.79995H8.0002C7.55837 8.79995 7.2002 8.44178 7.2002 7.99995Z" fill="currentColor"/>
  <path d="M8.0002 11.2C7.55837 11.2 7.2002 11.5581 7.2002 12C7.2002 12.4418 7.55837 12.8 8.0002 12.8H16.0002C16.442 12.8 16.8002 12.4418 16.8002 12C16.8002 11.5581 16.442 11.2 16.0002 11.2H8.0002Z" fill="currentColor"/>
  <path fill-rule="evenodd" clip-rule="evenodd" d="M2.2002 6.98995C2.2002 4.33682 4.34967 2.19995 6.9902 2.19995H17.0002C19.6533 2.19995 21.7902 4.34943 21.7902 6.98995V13C21.7902 15.6518 19.652 17.79 17.0002 17.79H14.3316L10.5659 21.5556C10.3371 21.7844 9.99299 21.8529 9.69405 21.7291C9.39511 21.6052 9.2002 21.3135 9.2002 20.99V17.79H6.9902C4.34837 17.79 2.2002 15.6418 2.2002 13V6.98995ZM6.9902 3.79995C5.23072 3.79995 3.8002 5.22308 3.8002 6.98995V13C3.8002 14.7581 5.23202 16.19 6.9902 16.19H10.0002C10.442 16.19 10.8002 16.5481 10.8002 16.99V19.0586L13.4345 16.4243C13.5845 16.2742 13.788 16.19 14.0002 16.19H17.0002C18.7684 16.19 20.1902 14.7681 20.1902 13V6.98995C20.1902 5.23047 18.7671 3.79995 17.0002 3.79995H6.9902Z" fill="currentColor"/>
</svg>
