<svg width="24" height="24" viewBox="0 0 24 24" fill="none" xmlns="http://www.w3.org/2000/svg" data-karrot-ui-icon="true">
  <path d="M2.2002 3.19995C2.2002 2.64767 2.64791 2.19995 3.2002 2.19995H19.8056C20.3579 2.19995 20.8056 2.64767 20.8056 3.19995V7.0999C20.8056 7.54173 20.4474 7.8999 20.0056 7.8999C19.5638 7.8999 19.2056 7.54173 19.2056 7.0999V3.79995H3.8002V19.1898H8.0418C8.48363 19.1898 8.8418 19.548 8.8418 19.9898C8.8418 20.4316 8.48363 20.7898 8.0418 20.7898H3.20019C2.64791 20.7898 2.2002 20.3421 2.2002 19.7898V3.19995Z" fill="currentColor"/>
  <path d="M7.12442 8C7.12442 7.55817 7.48259 7.2 7.92442 7.2H15.1028C15.5446 7.2 15.9028 7.55817 15.9028 8C15.9028 8.44183 15.5446 8.8 15.1028 8.8H7.92442C7.48259 8.8 7.12442 8.44183 7.12442 8Z" fill="currentColor"/>
  <path d="M7.12442 12C7.12442 11.5582 7.48259 11.2 7.92442 11.2H11.0911C11.533 11.2 11.8911 11.5582 11.8911 12C11.8911 12.4418 11.533 12.8 11.0911 12.8H7.92442C7.48259 12.8 7.12442 12.4418 7.12442 12Z" fill="currentColor"/>
  <path fill-rule="evenodd" clip-rule="evenodd" d="M20.7728 9.77279C20.0698 9.06984 18.9301 9.06985 18.2272 9.77281L11.1925 16.8078C10.9281 17.0721 10.7527 17.4122 10.6904 17.7808L10.1657 20.8881C10.0736 21.4337 10.5499 21.9058 11.0947 21.8089L14.1809 21.2599C14.5437 21.1954 14.8779 21.0211 15.1385 20.7606L22.1768 13.7224C22.8797 13.0194 22.8797 11.8797 22.1768 11.1768L20.7728 9.77279ZM19.3586 10.9042C19.4367 10.8261 19.5633 10.8261 19.6414 10.9042L21.0454 12.3081C21.1235 12.3862 21.1235 12.5129 21.0454 12.591L14.0071 19.6292C13.9782 19.6581 13.941 19.6775 13.9007 19.6847L11.9325 20.0348L12.2681 18.0472C12.275 18.0063 12.2945 17.9685 12.3239 17.9391L19.3586 10.9042Z" fill="currentColor"/>
</svg>
