<svg width="24" height="24" viewBox="0 0 24 24" fill="none" xmlns="http://www.w3.org/2000/svg" data-karrot-ui-icon="true">
  <path fill-rule="evenodd" clip-rule="evenodd" d="M13.7667 2.00661C13.4652 1.91368 13.1087 1.88903 12.7524 2.02673C12.3936 2.16539 12.1298 2.43207 11.9496 2.74754C11.9395 2.76518 11.9301 2.7832 11.9213 2.80157C10.1884 6.4509 8.47112 8.7689 7.67448 9.66484H3.1551C2.71051 9.66484 2.3501 10.0252 2.3501 10.4698V21.2102C2.3501 21.6548 2.71051 22.0152 3.1551 22.0152H15.813C17.2576 22.0152 18.1746 21.6907 18.8172 21.0464C20.164 19.6959 21.0375 17.4988 21.6151 15.5936C21.9347 14.5394 22.2849 13.1631 22.2605 11.9287C22.2481 11.3066 22.1404 10.6606 21.8365 10.0959C21.5204 9.50875 21.0132 9.05106 20.298 8.80946C20.1297 8.75263 19.9639 8.7143 19.8079 8.69474C19.7746 8.69058 19.7412 8.68849 19.7077 8.68849H15.1665L16.0466 6.92351C16.0606 6.89535 16.073 6.86638 16.0836 6.83676C16.3245 6.1672 16.2611 5.44455 16.0815 4.82169C15.8995 4.19065 15.577 3.58438 15.1962 3.0986C14.8308 2.63251 14.3365 2.1822 13.7667 2.00661ZM3.9601 11.2748V20.4052H7.19995V11.2748H3.9601ZM8.80995 10.8098C9.71571 9.81228 11.5338 7.35357 13.3414 3.56424C13.4701 3.62323 13.6869 3.7829 13.9291 4.09187C14.1899 4.4246 14.4132 4.84689 14.5345 5.26778C14.6518 5.67447 14.6559 6.01324 14.5812 6.25426L13.1452 9.13429C13.0208 9.38382 13.0344 9.67998 13.1811 9.91709C13.3278 10.1542 13.5868 10.2985 13.8656 10.2985H19.6469C19.6839 10.3055 19.7299 10.3169 19.7827 10.3348C20.1016 10.4425 20.2911 10.6218 20.4188 10.859C20.5585 11.1186 20.6413 11.4842 20.6508 11.9606C20.6698 12.9232 20.3881 14.0915 20.0744 15.1265C19.5035 17.0094 18.7204 18.8634 17.6772 19.9095C17.4473 20.14 17.0173 20.4052 15.813 20.4052H8.80995V10.8098Z" fill="currentColor"/>
</svg>
