<svg width="24" height="24" viewBox="0 0 24 24" fill="none" xmlns="http://www.w3.org/2000/svg" data-karrot-ui-icon="true">
  <path d="M12.9501 1.5501C12.9501 1.02543 12.5248 0.600098 12.0001 0.600098C11.4754 0.600098 11.0501 1.02543 11.0501 1.5501V2.547C6.5619 2.99262 2.99262 6.5619 2.547 11.0501H1.5501C1.02543 11.0501 0.600098 11.4754 0.600098 12.0001C0.600098 12.5248 1.02543 12.9501 1.5501 12.9501H2.547C2.99262 17.4383 6.5619 21.0076 11.0501 21.4532V22.4501C11.0501 22.9748 11.4754 23.4001 12.0001 23.4001C12.5248 23.4001 12.9501 22.9748 12.9501 22.4501V21.4532C13.3409 21.4144 13.7247 21.3519 14.1001 21.2672V19.3062C13.4331 19.4976 12.7286 19.6001 12.0001 19.6001C7.80273 19.6001 4.4001 16.1975 4.4001 12.0001C4.4001 7.80273 7.80273 4.4001 12.0001 4.4001C15.3588 4.4001 18.2086 6.57884 19.2134 9.6001H21.1943C20.2082 5.81184 16.9428 2.94342 12.9501 2.547V1.5501Z" fill="currentColor"/>
  <path fill-rule="evenodd" clip-rule="evenodd" d="M12 16.7501C14.6234 16.7501 16.75 14.6235 16.75 12.0001C16.75 9.37677 14.6234 7.25012 12 7.25012C9.37665 7.25012 7.25 9.37677 7.25 12.0001C7.25 14.6235 9.37665 16.7501 12 16.7501ZM12 14.7501C13.5188 14.7501 14.75 13.5189 14.75 12.0001C14.75 10.4813 13.5188 9.25012 12 9.25012C10.4812 9.25012 9.25 10.4813 9.25 12.0001C9.25 13.5189 10.4812 14.7501 12 14.7501Z" fill="currentColor"/>
  <path d="M23.1944 16.4003C23.3377 15.2764 22.9314 14.3327 22.2413 13.6959C21.5709 13.0774 20.6557 12.7663 19.766 12.8031C18.0428 12.8744 16.3999 14.2152 16.3999 16.11C16.3999 16.5711 16.7737 16.9448 17.2348 16.9448C17.6958 16.9448 18.0696 16.5711 18.0696 16.11C18.0696 15.2735 18.8341 14.5128 19.835 14.4714C20.3073 14.4518 20.783 14.6224 21.109 14.9231C21.4152 15.2056 21.6108 15.6188 21.5381 16.1891C21.4855 16.602 21.2241 16.7974 20.5248 17.2851C19.9012 17.7201 18.9656 18.3981 18.9656 19.8191C18.9656 20.2802 19.3394 20.654 19.8005 20.654C20.2616 20.654 20.6354 20.2802 20.6354 19.8191C20.6354 19.3139 20.8747 19.0768 21.48 18.6546C21.5194 18.6271 21.5616 18.5983 21.606 18.568C22.157 18.1916 23.0432 17.5862 23.1944 16.4003Z" fill="currentColor"/>
  <path d="M20.7127 21.9621C20.7127 22.4659 20.3043 22.8743 19.8005 22.8743C19.2967 22.8743 18.8884 22.4659 18.8884 21.9621C18.8884 21.4583 19.2967 21.05 19.8005 21.05C20.3043 21.05 20.7127 21.4583 20.7127 21.9621Z" fill="currentColor"/>
</svg>
