<svg width="24" height="24" viewBox="0 0 24 24" fill="none" xmlns="http://www.w3.org/2000/svg" data-karrot-ui-icon="true">
  <path fill-rule="evenodd" clip-rule="evenodd" d="M4 19C4 18.4477 4.44772 18 5 18H19C19.5523 18 20 18.4477 20 19C20 19.5523 19.5523 20 19 20H5C4.44772 20 4 19.5523 4 19Z" fill="currentColor"/>
  <path fill-rule="evenodd" clip-rule="evenodd" d="M19.6312 4.22442C20.0596 4.57302 20.1242 5.20288 19.7756 5.63124L10.8237 16.6312C10.6416 16.8549 10.3719 16.9891 10.0836 16.9994C9.79538 17.0097 9.51675 16.8949 9.31926 16.6847L4.27119 11.3115C3.89303 10.909 3.91278 10.2761 4.31529 9.89797C4.71781 9.51981 5.35066 9.53956 5.72882 9.94207L9.99409 14.4821L18.2244 4.36883C18.573 3.94047 19.2028 3.87581 19.6312 4.22442Z" fill="currentColor"/>
</svg>
