<svg width="24" height="24" viewBox="0 0 24 24" fill="none" xmlns="http://www.w3.org/2000/svg" data-karrot-ui-icon="true">
  <path fill-rule="evenodd" clip-rule="evenodd" d="M4.3999 18.9999C4.3999 18.6685 4.66853 18.3999 4.9999 18.3999H18.9999C19.3313 18.3999 19.5999 18.6685 19.5999 18.9999C19.5999 19.3313 19.3313 19.5999 18.9999 19.5999H4.9999C4.66853 19.5999 4.3999 19.3313 4.3999 18.9999Z" fill="currentColor"/>
  <path fill-rule="evenodd" clip-rule="evenodd" d="M19.3786 4.53455C19.6356 4.74371 19.6744 5.12163 19.4653 5.37864L10.5134 16.3786C10.4041 16.5129 10.2423 16.5934 10.0693 16.5995C9.89636 16.6057 9.72918 16.5369 9.61069 16.4107L4.56261 11.0375C4.33572 10.796 4.34757 10.4163 4.58908 10.1894C4.83059 9.96249 5.2103 9.97434 5.43719 10.2158L10.0156 15.0892L18.5345 4.6212C18.7437 4.36418 19.1216 4.32539 19.3786 4.53455Z" fill="currentColor"/>
</svg>
